<?xml version="1.0" encoding="utf-8"?>
<!-- Generator: Adobe Illustrator 27.8.1, SVG Export Plug-In . SVG Version: 6.00 Build 0)  -->
<svg version="1.1" id="Layer_1" xmlns="http://www.w3.org/2000/svg" xmlns:xlink="http://www.w3.org/1999/xlink" x="0px" y="0px"
	 viewBox="0 0 2500 846" style="enable-background:new 0 0 2500 846;" xml:space="preserve">
<style type="text/css">
	.st0{fill:#FFFFFF;}
</style>
<g id="Page-1">
	<g id="Artboard-1" transform="translate(-461 -850)">
		<g id="App-Store" transform="translate(462 850)">
			<g id="icon" transform="translate(130 88)">
				<path id="Fill-2" class="st0" d="M416.5,315.7c-0.5-60.6,49.6-90,51.8-91.4c-28.4-41.3-72.4-47-87.8-47.5
					c-36.9-3.9-72.8,22.2-91.5,22.2c-19.1,0-48.2-21.7-79.4-21.1c-40.1,0.7-77.8,23.9-98.3,60.1c-42.5,73.6-10.8,181.9,29.9,241.4
					c20.5,29.1,44.2,61.8,75.5,60.6c30.5-1.2,42-19.5,78.7-19.5c36.5,0,47.2,19.5,79,18.8c32.8-0.5,53.3-29.3,73.1-58.7
					c23.5-33.3,33-66.3,33.3-68C479.9,412.2,417.2,388.1,416.5,315.7"/>
				<path id="Fill-3" class="st0" d="M356.4,137.7c16.4-20.5,27.6-48.4,24.5-76.8c-23.7,1-53.5,16.4-70.6,36.5
					c-15.1,17.8-28.6,46.7-25.2,73.9C311.9,173.4,339.3,157.8,356.4,137.7"/>
			</g>
			<g transform="translate(459 218)">
				<path id="Fill-4" class="st0" d="M529.4,405.7h-42.6l-23.3-73.4h-81.2l-22.2,73.4h-41.5L399,155.8h49.7L529.4,405.7L529.4,405.7
					z M456.5,301.4l-21.1-65.1c-2.2-6.8-6.4-22.3-12.5-47H422c-2.5,10.7-6.4,26.4-11.8,47l-20.8,65.1H456.5z"/>
				<path id="Fill-5" class="st0" d="M736,313.5c0,30.6-8.3,54.8-25,72.6c-14.9,15.9-33.5,23.7-55.5,23.7
					c-23.9,0-40.9-8.5-51.4-25.5v94.6h-40.1V284.7c0-19.3-0.5-38.9-1.5-59.2h35.2l2.2,28.6h0.7c13.4-21.5,33.7-32.3,60.7-32.3
					c21.3,0,38.9,8.5,53.1,25.2C728.9,263.9,736,285.9,736,313.5L736,313.5z M695.2,314.8c0-17.6-3.9-32-11.8-43.3
					c-8.6-11.8-20.3-17.8-34.9-17.8c-9.8,0-18.8,3.4-26.9,9.8c-8,6.6-13.4,15.1-15.7,25.7c-1.2,4.9-1.9,9-1.9,12.2v30.1
					c0,13,4.1,24.2,12,33.2c8,9,18.4,13.5,31.3,13.5c15.1,0,26.7-5.9,35.2-17.4C691,349.2,695.2,333.9,695.2,314.8L695.2,314.8z"/>
				<path id="Fill-6" class="st0" d="M943.1,313.5c0,30.6-8.3,54.8-25,72.6c-14.9,15.9-33.5,23.7-55.5,23.7
					c-23.9,0-40.9-8.5-51.4-25.5v94.6H771V284.7c0-19.3-0.5-38.9-1.5-59.2h35.2l2.2,28.6h0.7c13.4-21.5,33.7-32.3,60.7-32.3
					c21.3,0,38.9,8.5,53.1,25.2C936,263.9,943.1,285.9,943.1,313.5L943.1,313.5z M902.3,314.8c0-17.6-3.9-32-11.8-43.3
					c-8.6-11.8-20.3-17.8-34.9-17.8c-9.8,0-18.8,3.4-26.9,9.8c-8,6.6-13.2,15.1-15.7,25.7c-1.2,4.9-1.9,9-1.9,12.2v30.1
					c0,13,4.1,24.2,12,33.2c8,9,18.4,13.5,31.3,13.5c15.1,0,26.9-5.9,35.2-17.4C898.3,349.2,902.3,333.9,902.3,314.8L902.3,314.8z"
					/>
				<path id="Fill-7" class="st0" d="M1174.9,335.6c0,21.3-7.4,38.6-22.2,51.9c-16.2,14.6-38.9,21.8-68,21.8
					c-26.9,0-48.4-5.2-64.6-15.6l9.3-33.3c17.6,10.3,36.9,15.6,57.9,15.6c15.1,0,26.9-3.4,35.2-10.2c8.5-6.8,12.7-15.9,12.7-27.2
					c0-10.2-3.6-18.6-10.3-25.5c-6.9-6.9-18.4-13.4-34.5-19.3c-44.2-16.4-66-40.3-66-71.6c0-20.5,7.8-37.2,23.2-50.4
					c15.4-13,35.9-19.6,61.4-19.6c22.7,0,41.6,3.9,56.7,11.8l-10.2,32.5c-14.2-7.6-30.1-11.5-48.1-11.5c-14,0-25.2,3.6-33.2,10.3
					c-6.6,6.3-10,13.7-10,22.7c0,9.8,3.9,18.1,11.5,24.4c6.6,5.9,18.8,12.4,36.4,19.3c21.5,8.6,37.2,18.8,47.4,30.5
					C1169.9,303.8,1174.9,318.4,1174.9,335.6"/>
				<path id="Fill-8" class="st0" d="M1307.6,255.6h-44.2v87.5c0,22.2,7.8,33.3,23.3,33.3c7.1,0,13-0.7,17.8-1.9l1.2,30.5
					c-8,2.9-18.3,4.4-31.1,4.4c-15.9,0-28.1-4.9-37.1-14.6s-13.4-25.9-13.4-48.6v-90.9h-26.2v-29.9h26.2v-33l39.3-11.8v44.8h44.2
					L1307.6,255.6"/>
				<path id="Fill-9" class="st0" d="M1506.2,314.1c0,27.7-8,50.4-23.7,68.2c-16.6,18.3-38.6,27.4-66,27.4
					c-26.4,0-47.5-8.8-63.3-26.2c-15.7-17.4-23.5-39.6-23.5-66.3c0-27.9,8.1-50.8,24.2-68.5c16.2-17.8,38.1-26.7,65.5-26.7
					c26.4,0,47.7,8.8,63.8,26.4C1498.6,265.2,1506.2,287.2,1506.2,314.1L1506.2,314.1z M1464.8,315c0-16.6-3.6-30.6-10.7-42.5
					c-8.5-14.4-20.5-21.5-36-21.5c-16.1,0-28.4,7.1-36.7,21.5c-7.3,11.8-10.7,26.2-10.7,43.3c0,16.6,3.6,30.8,10.7,42.5
					c8.6,14.4,20.8,21.5,36.4,21.5c15.2,0,27.2-7.3,36-21.8C1461,345.8,1464.8,331.6,1464.8,315z"/>
				<path id="Fill-10" class="st0" d="M1636.5,260.7c-3.9-0.7-8.1-1-12.7-1c-14,0-25,5.2-32.7,15.9c-6.6,9.3-10,21.3-10,35.5v94.6
					h-40.1V282.2c0-20.8-0.3-39.8-1.2-56.7h34.9l1.5,34.5h1.2c4.2-11.8,10.8-21.5,20-28.6c9-6.4,18.6-9.6,28.9-9.6
					c3.7,0,7.1,0.3,10,0.7L1636.5,260.7"/>
				<path id="Fill-11" class="st0" d="M1815.5,307c0,7.1-0.5,13.2-1.5,18.1h-120.1c0.5,17.8,6.3,31.5,17.4,40.8
					c10.2,8.3,23.2,12.5,39.3,12.5c17.8,0,34-2.9,48.6-8.5l6.3,27.7c-17.1,7.4-37.2,11.2-60.4,11.2c-27.9,0-49.9-8.3-65.8-24.7
					c-15.9-16.4-23.9-38.6-23.9-66.2c0-27.1,7.4-49.7,22.3-67.8c15.6-19.3,36.5-28.9,62.9-28.9c25.9,0,45.7,9.6,58.9,28.9
					C1810.1,265.7,1815.5,284.5,1815.5,307L1815.5,307z M1777.3,296.7c0.3-11.8-2.4-22.2-7.8-30.8c-6.9-11.2-17.6-16.8-31.8-16.8
					c-13,0-23.7,5.4-31.8,16.2c-6.6,8.6-10.7,19.1-11.8,31.1L1777.3,296.7L1777.3,296.7z"/>
			</g>
			<g id="Available-on-the" transform="translate(468 91)">
				<path id="Fill-12" class="st0" d="M428.2,193.4h-21l-11.5-36h-39.9l-11,36h-20.3l39.4-122.8h24.4L428.2,193.4z M392.2,142.2
					L381.9,110c-1-3.2-3-11-6.3-23.2h-0.3c-1.4,5.2-3,12.9-5.9,23.2l-10.2,32.1H392.2z"/>
				<path id="Fill-13" class="st0" d="M527,104.8l-33.5,88.7h-19.1l-32.5-88.7h21.1l15.1,46.9c2.5,7.8,4.7,15.2,6.4,22.3h0.5
					c1.5-6.4,3.7-13.9,6.4-22.3l14.9-46.9L527,104.8"/>
				<path id="Fill-14" class="st0" d="M598.4,193.4l-1.5-10.2h-0.5c-6.1,8.1-14.7,12.2-25.9,12.2c-15.9,0-27.1-11.2-27.1-26.1
					c0-21.8,19-33.2,51.8-33.2v-1.7c0-11.7-6.3-17.4-18.4-17.4c-8.8,0-16.4,2.2-23.2,6.6l-4.1-12.9c8.1-5.1,18.4-7.6,30.5-7.6
					c23.2,0,34.9,12.2,34.9,36.7v32.7c0,9,0.3,15.9,1.4,21.1L598.4,193.4L598.4,193.4z M595.7,149.3c-21.8,0-32.8,5.2-32.8,17.9
					c0,9.3,5.6,13.9,13.5,13.9c10,0,19.3-7.6,19.3-18.1V149.3z"/>
				<path id="Fill-15" class="st0" d="M658.7,90.2c-6.6,0-11.7-5.1-11.7-11.8c0-6.8,5.2-11.7,12-11.7s12.2,4.9,12,11.7
					C671,85.5,665.9,90.2,658.7,90.2L658.7,90.2z M649.2,104.8h19.6v88.5h-19.6V104.8z"/>
				<path id="Fill-16" class="st0" d="M703.8,64.2h19.6v129.1h-19.6V64.2z"/>
				<path id="Fill-17" class="st0" d="M807.1,193.4l-1.5-10.2H805c-6.1,8.1-14.7,12.2-25.9,12.2c-15.9,0-27.1-11.2-27.1-26.1
					c0-21.8,19-33.2,51.8-33.2v-1.7c0-11.7-6.3-17.4-18.4-17.4c-8.8,0-16.4,2.2-23.2,6.6l-4.1-13c8.1-5.1,18.4-7.6,30.5-7.6
					c23.2,0,34.9,12.2,34.9,36.7v32.7c0,9,0.3,15.9,1.2,21.2h-17.6L807.1,193.4L807.1,193.4z M804.3,149.3
					c-21.8,0-32.8,5.2-32.8,17.9c0,9.3,5.6,13.9,13.5,13.9c10,0,19.3-7.6,19.3-18.1V149.3z"/>
				<path id="Fill-18" class="st0" d="M903.3,195.5c-12.5,0-21.8-5.2-27.9-15.7h-0.3l-1.2,13.7h-16.8c0.5-7.1,0.7-15.1,0.7-23.9
					V64.2h19.8v53.6h0.3c5.9-9.8,15.2-14.7,28.3-14.7c21.3,0,36.2,18.3,36.2,44.8C942.4,175.3,925.8,195.5,903.3,195.5z
					 M899.3,118.5c-11.3,0-21.7,9.8-21.7,23.5v15.6c0,12.2,9.3,22.2,21.3,22.2c14.7,0,23.5-12,23.5-31.1
					C922.5,130.7,913.3,118.5,899.3,118.5z"/>
				<path id="Fill-19" class="st0" d="M971.5,64.2h19.6v129.1h-19.6V64.2z"/>
				<path id="Fill-20" class="st0" d="M1098.2,153.8h-59.1c0.3,16.8,11.5,26.2,27.9,26.2c8.8,0,16.8-1.5,23.9-4.2l3,13.7
					c-8.3,3.7-18.1,5.4-29.6,5.4c-27.7,0-44.2-17.4-44.2-44.7c0-27.1,16.8-47.5,42-47.5c22.5,0,36.9,16.8,36.9,42.1
					C1099.1,148.4,1098.9,151.5,1098.2,153.8L1098.2,153.8z M1080.3,139.8c0-13.7-6.9-23.3-19.5-23.3c-11.3,0-20.1,9.8-21.5,23.3
					H1080.3z"/>
				<path id="Fill-21" class="st0" d="M1217.5,195.5c-25.9,0-42.6-19.3-42.6-45.5c0-27.4,17.1-46.9,44.2-46.9
					c25.5,0,42.6,18.4,42.6,45.3C1261.7,176,1244.1,195.5,1217.5,195.5z M1218.4,117.5c-14.2,0-23.3,13.4-23.3,31.8
					c0,18.3,9.3,31.5,23.2,31.5s23.2-14.2,23.2-32C1241.2,130.8,1232.3,117.5,1218.4,117.5L1218.4,117.5z"/>
				<path id="Fill-22" class="st0" d="M1367.4,193.4h-19.6v-50.9c0-15.7-6.1-23.5-17.9-23.5c-11.7,0-19.6,10-19.6,21.7v52.6h-19.6
					v-63.1c0-7.8-0.2-16.2-0.7-25.4h17.3l0.8,13.7h0.5c5.2-9.5,16.1-15.6,28.1-15.6c18.6,0,30.8,14.2,30.8,37.4L1367.4,193.4"/>
				<path id="Fill-23" class="st0" d="M1496.2,119.7h-21.7v43c0,11,3.9,16.4,11.5,16.4c3.4,0,6.4-0.3,8.8-0.8l0.5,14.9
					c-3.9,1.5-9,2.2-15.2,2.2c-15.6,0-24.7-8.6-24.7-31v-44.7h-12.9v-14.7h12.9V88.7l19.3-5.9v22h21.7v14.9"/>
				<path id="Fill-24" class="st0" d="M1600.4,193.4h-19.6v-50.6c0-15.9-6.1-23.9-17.9-23.9c-10.2,0-19.6,6.9-19.6,21v53.3h-19.6
					V64.2h19.6v53.1h0.3c6.3-9.6,15.1-14.4,26.6-14.4c18.8,0,30.3,14.6,30.3,37.7V193.4"/>
				<path id="Fill-25" class="st0" d="M1700.9,153.8h-59.1c0.3,16.8,11.5,26.2,27.9,26.2c8.8,0,16.8-1.5,23.9-4.2l3,13.7
					c-8.3,3.7-18.1,5.4-29.6,5.4c-27.7,0-44.2-17.4-44.2-44.7c0-27.1,16.8-47.5,42-47.5c22.5,0,36.9,16.8,36.9,42.1
					C1701.8,148.4,1701.6,151.5,1700.9,153.8z M1683,139.8c0-13.7-6.9-23.3-19.5-23.3c-11.3,0-20.3,9.8-21.5,23.3H1683z"/>
			</g>
		</g>
	</g>
</g>
</svg>
