<?xml version="1.0" encoding="utf-8"?>
<!-- Generator: Adobe Illustrator 27.8.1, SVG Export Plug-In . SVG Version: 6.00 Build 0)  -->
<svg version="1.1" id="Layer_1" xmlns="http://www.w3.org/2000/svg" xmlns:xlink="http://www.w3.org/1999/xlink" x="0px" y="0px"
	 viewBox="0 0 2500 609" style="enable-background:new 0 0 2500 609;" xml:space="preserve">
<style type="text/css">
	.st0{fill:none;}
	.st1{opacity:0.54;fill:#FFFFFF;enable-background:new    ;}
	.st2{fill:url(#SVGID_1_);}
	.st3{fill:url(#SVGID_00000023243998301606936520000012946943162899399858_);}
	.st4{fill:url(#SVGID_00000005972326858887918270000010635994100446508207_);}
	.st5{fill:url(#SVGID_00000143610427444315125940000009978010766550592433_);}
	.st6{opacity:0.2;enable-background:new    ;}
	.st7{opacity:0.12;enable-background:new    ;}
	.st8{opacity:0.25;fill:#FFFFFF;enable-background:new    ;}
</style>
<path class="st0" d="M477.9,0h1544.3v609H477.9V0z"/>
<path class="st1" d="M1224.6,280.6c-25.4,0-46.1,19.3-46.1,45.9c0,26.5,20.7,45.9,46.1,45.9c25.4,0,46.1-19.4,46.1-45.9
	S1250,280.6,1224.6,280.6z M1224.6,354.4c-13.9,0-26-11.6-26-27.9c0-16.6,12-27.9,26-27.9c14,0,26,11.3,26,27.9
	C1250.4,342.8,1238.4,354.4,1224.6,354.4z M1348,290.9h-0.7c-4.5-5.4-13.2-10.3-24.2-10.3c-23,0-44,20.3-44,46.1
	c0,25.7,21.1,45.8,44,45.8c11,0,19.7-4.9,24.2-10.5h0.7v6.7c0,17.5-9.4,26.9-24.5,26.9c-12.4,0-20-8.8-23.1-16.3l-17.5,7.3
	c5,12.2,18.5,27.2,40.8,27.2c23.7,0,43.6-13.9,43.6-47.9v-82.5h-19.2L1348,290.9z M1324.9,354.4c-13.9,0-25.6-11.7-25.6-27.7
	c0-16.2,11.7-28,25.6-28c13.7,0,24.5,11.8,24.5,28C1349.4,342.8,1338.6,354.4,1324.9,354.4z M1124,280.6
	c-25.4,0-46.1,19.3-46.1,45.9c0,26.5,20.7,45.9,46.1,45.9s46.1-19.4,46.1-45.9S1149.4,280.6,1124,280.6L1124,280.6z M1124,354.4
	c-13.9,0-26-11.6-26-27.9c0-16.6,12-27.9,26-27.9c13.9,0,26,11.3,26,27.9C1149.8,342.8,1137.9,354.4,1124,354.4z M1004.2,294.6V314
	h46.6c-1.4,11-5,19-10.6,24.6c-6.8,6.8-17.4,14.3-36,14.3c-28.7,0-51.1-23.1-51.1-51.8c0-28.7,22.4-51.8,51.1-51.8
	c15.5,0,26.8,6.1,35.2,13.9l13.7-13.7c-11.7-11.1-27.2-19.7-48.9-19.7c-39.3,0-72.5,32.1-72.5,71.4s33,71.4,72.5,71.4
	c21.2,0,37.2-6.9,49.8-20c12.9-12.9,16.9-31,16.9-45.5c0-4.5-0.4-8.7-1.1-12.2L1004.2,294.6z M1493.6,309.9
	c-3.8-10.3-15.5-29.2-39.3-29.2c-23.7,0-43.4,18.6-43.4,45.9c0,25.7,19.4,45.9,45.5,45.9c21.1,0,33.3-12.9,38.3-20.4l-15.6-10.5
	c-5.2,7.6-12.4,12.6-22.6,12.6s-17.5-4.8-22.3-13.9l61.4-25.4L1493.6,309.9z M1431.1,325.2c-0.5-17.8,13.7-26.8,24.1-26.8
	c8,0,14.8,3.9,17,9.8L1431.1,325.2z M1381,369.7h20.1v-135H1381V369.7z M1588.2,234.8H1540v135h20.1v-51.1h28.1
	c22.3,0,44.3-16.2,44.3-42C1632.5,250.9,1610.5,234.8,1588.2,234.8z M1588.8,299.6h-28.7v-46.2h28.7c15.1,0,23.7,12.5,23.7,23.1
	C1612.4,287.1,1603.8,299.6,1588.8,299.6z M1643.7,369.8h20.1v-135h-20.1V369.8z M1713.3,280.3c-14.5,0-29.8,6.4-36,20.7l17.9,7.5
	c3.8-7.5,10.9-9.9,18.4-9.9c10.5,0,21.1,6.3,21.2,17.4v1.4c-3.7-2-11.4-5.2-21.1-5.2c-19.3,0-38.9,10.6-38.9,30.4
	c0,18.1,15.8,29.6,33.6,29.6c13.6,0,21.1-6.1,25.7-13.2h0.7v10.5h19.4v-51.8C1754.3,293.8,1736.4,280.3,1713.3,280.3L1713.3,280.3z
	 M1710.8,354.4c-6.7,0-15.8-3.3-15.8-11.4c0-10.5,11.4-14.4,21.3-14.4c8.8,0,13,1.9,18.4,4.5
	C1733.3,345.6,1722.5,354.4,1710.8,354.4L1710.8,354.4z M1825.2,283.3l-23.1,58.6h-0.7l-23.9-58.6h-21.8l35.9,81.8l-20.5,45.7h21.1
	l55.5-127.4h-22.4L1825.2,283.3z"/>
<linearGradient id="SVGID_1_" gradientUnits="userSpaceOnUse" x1="371.8509" y1="472.3624" x2="257.0139" y2="357.5254" gradientTransform="matrix(1.3594 0 0 -1.3594 256.3922 841.5093)">
	<stop  offset="0" style="stop-color:#00A0FF"/>
	<stop  offset="7.000001e-03" style="stop-color:#00A1FF"/>
	<stop  offset="0.26" style="stop-color:#00BEFF"/>
	<stop  offset="0.512" style="stop-color:#00D2FF"/>
	<stop  offset="0.76" style="stop-color:#00DFFF"/>
	<stop  offset="1" style="stop-color:#00E3FF"/>
</linearGradient>
<path class="st2" d="M656.2,188.5c-2.7,2.9-4.3,7.3-4.3,13.1v205.7c0,5.7,1.6,10.2,4.3,13l0.7,0.7l115.3-115.3V303L656.9,187.7
	L656.2,188.5z"/>
<linearGradient id="SVGID_00000092441327032785113880000010798956089772285594_" gradientUnits="userSpaceOnUse" x1="454.2079" y1="395.1414" x2="288.6369" y2="395.1414" gradientTransform="matrix(1.3594 0 0 -1.3594 256.3922 841.5093)">
	<stop  offset="0" style="stop-color:#FFE000"/>
	<stop  offset="0.409" style="stop-color:#FFBD00"/>
	<stop  offset="0.775" style="stop-color:#FFA500"/>
	<stop  offset="1" style="stop-color:#FF9C00"/>
</linearGradient>
<path style="fill:url(#SVGID_00000092441327032785113880000010798956089772285594_);" d="M810.5,344.2l-38.3-38.5V303l38.5-38.5
	l0.8,0.5l45.5,25.8c13.1,7.3,13.1,19.4,0,26.9l-45.5,25.8L810.5,344.2z"/>
<linearGradient id="SVGID_00000067942429055788178020000002992548463782249857_" gradientUnits="userSpaceOnUse" x1="392.5739" y1="379.3854" x2="236.8469" y2="223.6584" gradientTransform="matrix(1.3594 0 0 -1.3594 256.3922 841.5093)">
	<stop  offset="0" style="stop-color:#FF3A44"/>
	<stop  offset="1" style="stop-color:#C31162"/>
</linearGradient>
<path style="fill:url(#SVGID_00000067942429055788178020000002992548463782249857_);" d="M811.5,343.6l-39.3-39.3l-116,116
	c4.2,4.5,11.4,5.2,19.3,0.5L811.5,343.6z"/>
<linearGradient id="SVGID_00000111164016006682131920000016700902863089088703_" gradientUnits="userSpaceOnUse" x1="272.6249" y1="530.7464" x2="342.1639" y2="461.2074" gradientTransform="matrix(1.3594 0 0 -1.3594 256.3922 841.5093)">
	<stop  offset="0" style="stop-color:#32A071"/>
	<stop  offset="6.900000e-02" style="stop-color:#2DA771"/>
	<stop  offset="0.476" style="stop-color:#15CF74"/>
	<stop  offset="0.801" style="stop-color:#06E775"/>
	<stop  offset="1" style="stop-color:#00F076"/>
</linearGradient>
<path style="fill:url(#SVGID_00000111164016006682131920000016700902863089088703_);" d="M811.5,265.2L675.5,188
	c-8-4.5-15.1-3.9-19.3,0.5l116,116L811.5,265.2z"/>
<path class="st6" d="M810.5,342.8l-135,76.7c-7.6,4.4-14.3,4.1-18.6,0.1l-0.7,0.7l0.7,0.7c4.4,3.9,11.1,4.2,18.6-0.1l135.9-77.2
	L810.5,342.8z"/>
<path class="st7" d="M656.2,419c-2.7-2.9-4.3-7.3-4.3-13.1v1.4c0,5.7,1.6,10.2,4.3,13.1l0.7-0.7L656.2,419z M856.9,316.5l-46.4,26.4
	l0.8,0.8l45.5-25.8c6.5-3.7,9.8-8.6,9.8-13.5C866.1,308.8,862.9,313.1,856.9,316.5z"/>
<path class="st8" d="M675.5,189.2l181.3,103c5.8,3.4,9.2,7.6,9.8,12.1c0-4.9-3.3-9.8-9.8-13.5l-181.3-103
	c-13.1-7.3-23.7-1.2-23.7,13.6v1.4C651.9,188,662.5,181.9,675.5,189.2z"/>
</svg>
