<?xml version="1.0" encoding="UTF-8"?>
<svg id="Layer_1" data-name="Layer 1" xmlns="http://www.w3.org/2000/svg" viewBox="0 0 800 800">
  <defs>
    <style>
      .cls-1 {
        fill: none;
        stroke: #fff;
        stroke-linejoin: round;
        stroke-width: 33.33px;
      }
    </style>
  </defs>
  <path class="cls-1" d="m102.1,241.5c1.6-34.1,6.9-56,14.1-74.7l.1-.3c7.1-19,18.3-36.2,32.8-50.4l.2-.2.2-.2c14.2-14.5,31.4-25.7,50.4-32.8l.3-.1c18.6-7.2,40.5-12.6,74.6-14.1M102.1,241.5c-1.6,36.4-2.1,47.7-2.1,142.1s.4,105.7,2.1,142.1m0-284.2v9.2m14.2,349.9c7.1,19,18.3,36.2,32.8,50.4l.2.2.2.2c14.2,14.5,31.4,25.7,50.4,32.8l.3.1c18.6,7.2,40.6,12.5,74.7,14.1m-158.6-97.8l-.1-.3c-7.2-18.6-12.6-40.5-14.1-74.6m14.2,74.9l-.4-2.3m-13.8-72.7l.6,2.9m-.6-2.9v-9.2m13.8,81.9l-13.2-69.8m13.2,69.8c-5.6-14.9-11.4-35.6-13.2-69.8m13.2,69.8c.2.5.4,1,.6,1.5,7.1,19.2,18.4,36.7,33.1,51,14.3,14.7,31.8,26,51,33.1,15.4,6,37.2,12.3,74.3,14,37.4,1.7,49,2.1,142.1,2.1s104.6-.3,142.1-2.1c37.1-1.7,58.9-8,74.2-14,19.2-7.1,36.7-18.4,51-33.1,14.7-14.3,26-31.8,33.1-51,6-15.4,12.3-37.2,14-74.3,1.7-37.4,2.1-49,2.1-142.1s-.3-104.6-2.1-142.1c-1.7-37.3-8.1-59.1-14.1-74.5-7.8-20.2-17.8-35.5-33-50.8-15.2-15.2-30.5-25.1-50.7-33-15.4-6-37.2-12.4-74.5-14.1-3.2-.1-6.3-.3-9.2-.4M102.6,528.5c-.1-1-.1-1.9-.1-2.9-.1-3.2-.3-6.3-.4-9.2M274.8,68.7c36.4-1.7,47.7-2.1,142.1-2.1s105.6.4,142,2.1m-284.1,0h9.2m274.9,0h-9.2m9.2,0c34.1,1.6,56,6.9,74.7,14.1l.3.1c19,7.1,36.2,18.3,50.4,32.8l.2.2.2.2c14.5,14.2,25.7,31.4,32.8,50.4l.1.3c7.2,18.6,12.6,40.5,14.1,74.6M284,68.7h265.7m-265.7,0c30.8-1.3,47.9-1.6,132.9-1.6s102,.3,132.9,1.6m-265.8,0c-2.9.1-6,.3-9.2.4-37.1,1.7-58.9,8-74.2,14-19.3,7.2-36.8,18.5-51.2,33.3-15.1,15.2-25,30.4-32.8,50.6-6,15.4-12.4,37.2-14.1,74.5-.1,3.2-.3,6.3-.4,9.2m629.6,274.9c-1.6,34.1-6.9,56-14.1,74.7l-.1.3c-7.2,19-18.3,36.2-32.8,50.4l-.2.2-.2.2c-14.2,14.5-31.4,25.7-50.4,32.8l-.3.1c-18.6,7.2-40.5,12.6-74.6,14.1m-456.9-182c-1.3-30.8-1.6-47.9-1.6-132.9s.3-102,1.6-132.9m0,265.8V250.7m258.4,268.9c17.9,7.4,37,11.2,56.4,11.2,39.1,0,76.5-15.5,104.1-43.1,27.6-27.6,43.1-65.1,43.1-104.1s-15.5-76.5-43.1-104.1c-27.6-27.6-65.1-43.1-104.1-43.1-19.3,0-38.5,3.8-56.4,11.2s-34.1,18.2-47.8,31.9c-13.7,13.7-24.5,29.9-31.9,47.8s-11.2,37-11.2,56.4,3.8,38.5,11.2,56.4c7.4,17.9,18.2,34.1,31.9,47.8,13.7,13.5,29.9,24.3,47.8,31.7Zm-48.1-240.5c27.7-27.7,65.3-43.3,104.5-43.3s76.8,15.6,104.5,43.3c27.7,27.7,43.3,65.3,43.3,104.5s-15.6,76.8-43.3,104.5-65.3,43.3-104.5,43.3-76.8-15.6-104.5-43.3-43.3-65.3-43.3-104.5c0-39.2,15.6-76.8,43.3-104.5Zm335.4-77.7c0,11.2-4.5,22-12.4,29.9s-18.7,12.4-29.9,12.4-22-4.5-29.9-12.4-12.4-18.7-12.4-29.9,4.5-22,12.4-29.9,18.7-12.4,29.9-12.4,22,4.5,29.9,12.4,12.4,18.7,12.4,29.9Z"/>
</svg>