<?xml version="1.0" encoding="UTF-8"?>
<svg id="Layer_1" data-name="Layer 1" xmlns="http://www.w3.org/2000/svg" viewBox="0 0 800 800">
  <defs>
    <style>
      .cls-1 {
        fill: none;
        stroke: #fff;
        stroke-linejoin: round;
        stroke-width: 33.33px;
      }
    </style>
  </defs>
  <path class="cls-1" d="m733.3,115.7v568.6c0,13-5.2,25.5-14.4,34.7s-21.7,14.4-34.7,14.4H115.7c-13,0-25.5-5.2-34.7-14.4s-14.4-21.7-14.4-34.7V115.7c0-13,5.2-25.5,14.4-34.7,9.2-9.2,21.7-14.4,34.7-14.4h568.6c13,0,25.5,5.2,34.7,14.4,9.2,9.2,14.3,21.7,14.3,34.7h0Zm-470.6,205.9h-98v313.7h98v-313.7Zm8.9-107.9c.1-7.4-1.4-14.8-4.1-21.6-2.8-6.9-6.9-13.1-12.1-18.4-5.2-5.3-11.4-9.5-18.2-12.4s-14.2-4.4-21.6-4.4h-1.8c-15.1,0-29.5,6-40.2,16.7s-16.7,25.1-16.7,40.2,6,29.5,16.7,40.2c10.7,10.7,25.1,16.7,40.2,16.7h0c7.4.2,14.8-1.1,21.7-3.8,6.9-2.7,13.2-6.7,18.6-11.8,5.4-5.1,9.7-11.2,12.7-18s4.6-14.1,4.8-21.5v-1.9h0Zm363.7,231c0-94.3-60-131-119.6-131-19.5-1-38.9,3.2-56.4,12.1-17.4,8.9-32.2,22.2-42.9,38.5h-2.7v-42.7h-92.2v313.7h98v-166.9c-1.4-17.1,4-34,15-47.2,11-13.1,26.8-21.4,43.8-23h3.7c31.2,0,54.3,19.6,54.3,69v168h98l1-190.5Z"/>
</svg>