<?xml version="1.0" encoding="UTF-8"?>
<!-- Generator: visioncortex VTracer 0.6.3 -->
<svg version="1.1" xmlns="http://www.w3.org/2000/svg" width="1280" height="1272">
<path d="M0 0 C1.88 0 3.76 0 5.64 0 C9.54 0 13.45 0.01 17.36 0.02 C22.34 0.04 27.32 0.05 32.3 0.04 C36.17 0.04 40.04 0.05 43.9 0.06 C45.74 0.06 47.58 0.06 49.41 0.06 C76.1 0.09 76.1 0.09 83.26 4.29 C87.07 6.33 90.88 6.39 95.14 6.61 C100.99 7.03 106.62 7.79 112.01 10.23 C112.43 10.73 112.85 11.23 113.29 11.74 C116.45 14.47 121.08 14.42 125.12 14.96 C129.85 15.7 131.8 16.8 135.01 20.23 C137.9 21.2 137.9 21.2 141.01 21.73 C145.82 22.64 147.62 23.81 151.01 27.23 C153.84 28.13 156.63 28.67 159.55 29.23 C162.01 30.23 162.01 30.23 163.18 32.8 C163.46 33.6 163.73 34.4 164.01 35.23 C164.88 35.37 165.74 35.52 166.64 35.67 C170.83 36.37 172.8 38.13 176.05 40.74 C178.15 42.43 178.15 42.43 181.45 43.92 C184.01 45.23 184.01 45.23 185.01 48.23 C185.92 48.68 186.83 49.14 187.76 49.61 C191.29 51.37 193.25 53.46 196.01 56.23 C198 57.25 200 58.25 202.01 59.23 C204.14 61.17 204.14 61.17 206.01 63.23 C206.75 63.91 207.5 64.59 208.26 65.29 C210.01 67.23 210.01 67.23 210.01 70.23 C210.8 70.33 211.58 70.44 212.39 70.54 C215.01 71.23 215.01 71.23 217.01 74.23 C217.01 75.22 217.01 76.21 217.01 77.23 C217.59 77.27 218.17 77.31 218.76 77.36 C222.11 78.66 223.09 81.28 225.01 84.23 C225.69 84.56 226.37 84.89 227.07 85.23 C230.01 86.75 230.58 89.31 232.01 92.23 C233.66 93.92 235.33 95.58 237.01 97.23 C241.73 103.06 241.73 103.06 242.53 106.38 C242.69 106.99 242.85 107.6 243.01 108.23 C243.67 108.56 244.33 108.89 245.01 109.23 C245.34 110.22 245.67 111.21 246.01 112.23 C247 112.89 247.99 113.55 249.01 114.23 C249.01 115.22 249.01 116.21 249.01 117.23 C249.67 117.23 250.33 117.23 251.01 117.23 C251.28 118.16 251.55 119.09 251.82 120.04 C252.72 123.19 252.72 123.19 254.64 124.73 C256.01 126.23 256.01 126.23 256.2 129.42 C256.14 130.35 256.08 131.27 256.01 132.23 C256.67 131.24 257.33 130.25 258.01 129.23 C258.11 129.86 258.21 130.48 258.31 131.13 C258.53 132.35 258.53 132.35 258.76 133.61 C258.9 134.42 259.04 135.23 259.18 136.07 C259.83 138.41 259.83 138.41 262.09 139.52 C262.72 139.75 263.36 139.99 264.01 140.23 C264.01 140.89 264.01 141.55 264.01 142.23 C264.66 143.57 265.33 144.9 266.01 146.23 C267.75 150.2 269.42 154.2 271.01 158.23 C271.34 158.23 271.67 158.23 272.01 158.23 C272.67 163.84 273.33 169.45 274.01 175.23 C274.67 175.23 275.33 175.23 276.01 175.23 C280.1 185.75 280.31 196.78 280.2 207.92 C280.2 209.19 280.2 210.46 280.2 211.78 C280.15 221.09 280.15 221.09 279.01 222.23 C279.67 222.56 280.33 222.89 281.01 223.23 C283.24 229.9 283.32 236.3 283.31 243.29 C283.32 245 283.32 245 283.33 246.75 C283.33 249.16 283.33 251.57 283.33 253.98 C283.32 257.65 283.35 261.32 283.37 264.99 C283.38 267.34 283.38 269.69 283.38 272.04 C283.38 273.13 283.39 274.21 283.4 275.34 C283.37 280.09 283.24 284.15 281.51 288.61 C279.21 294.7 279.6 300.95 279.65 307.38 C279.65 308.73 279.65 310.08 279.65 311.43 C279.65 314.24 279.66 317.05 279.68 319.86 C279.7 323.47 279.7 327.07 279.69 330.67 C279.69 333.45 279.7 336.23 279.71 339.01 C279.71 340.98 279.71 342.96 279.71 344.93 C279.72 346.13 279.73 347.32 279.74 348.55 C279.74 349.6 279.75 350.65 279.75 351.73 C279.76 354.4 279.76 354.4 282.01 356.23 C289.71 356.9 298.41 356.77 306.01 355.23 C306.34 354.57 306.67 353.91 307.01 353.23 C307.01 353.89 307.01 354.55 307.01 355.23 C308.99 354.9 310.97 354.57 313.01 354.23 C313.34 352.91 313.67 351.59 314.01 350.23 C315.43 349.89 316.84 349.56 318.26 349.23 C319.05 349.04 319.84 348.86 320.65 348.67 C323.01 348.23 323.01 348.23 327.01 348.23 C327.34 347.57 327.67 346.91 328.01 346.23 C328.01 346.89 328.01 347.55 328.01 348.23 C328.69 348.03 329.36 347.82 330.06 347.61 C330.95 347.34 331.84 347.07 332.76 346.79 C334.08 346.39 334.08 346.39 335.43 345.98 C336.28 345.74 337.14 345.49 338.01 345.23 C338.67 345.03 339.32 344.83 339.99 344.62 C348.03 343.07 357.23 345.51 365.14 347.11 C365.97 347.27 366.8 347.43 367.65 347.59 C368.43 347.76 369.21 347.93 370.02 348.1 C370.72 348.24 371.41 348.39 372.13 348.54 C374.39 349.37 375.51 350.37 377.01 352.23 C377.01 352.89 377.01 353.55 377.01 354.23 C377.57 354.33 378.13 354.44 378.7 354.54 C381.53 355.39 383.62 356.49 386.01 358.23 C386.82 360.42 386.82 360.42 387.01 362.23 C388.33 362.56 389.65 362.89 391.01 363.23 C390.93 364.16 390.85 365.09 390.76 366.04 C390.89 367.62 390.89 367.62 391.01 369.23 C392.84 370.79 392.84 370.79 395.01 372.23 C398.27 377.31 398.47 381.58 398.39 387.42 C398.4 388.22 398.41 389.03 398.42 389.86 C398.42 390.64 398.41 391.41 398.41 392.21 C398.41 392.91 398.4 393.61 398.4 394.33 C397.89 396.81 396.98 397.68 395.01 399.23 C394.02 399.56 393.03 399.89 392.01 400.23 C391.87 401.14 391.72 402.05 391.57 402.98 C391.15 405.45 390.66 407.82 390.01 410.23 C389.35 410.23 388.69 410.23 388.01 410.23 C387.97 410.79 387.93 411.34 387.89 411.92 C386.78 414.85 384.92 416.12 382.49 418 C380.86 419.25 380.86 419.25 379.51 421.36 C376.37 425.28 371.8 426.45 367.01 427.23 C366.02 427.56 365.03 427.89 364.01 428.23 C363.68 429.22 363.35 430.21 363.01 431.23 C361.68 431.57 360.35 431.91 359.01 432.23 C358.35 433.22 357.69 434.21 357.01 435.23 C356.35 435.12 355.68 435.02 355 434.91 C349.45 434.11 349.45 434.11 344.07 435.36 C341.85 437.16 341.85 437.16 340.64 439.92 C340.1 440.68 339.56 441.44 339.01 442.23 C335.57 442.61 332.81 442.43 329.45 441.61 C326.07 441.09 324.07 441.74 321.01 443.23 C319.64 445.71 319.64 445.71 319.01 448.23 C318.68 448.56 318.35 448.89 318.01 449.23 C315.99 449.14 313.97 448.98 311.95 448.79 C310.84 448.69 309.74 448.59 308.6 448.48 C307.75 448.4 306.89 448.32 306.01 448.23 C306.01 449.88 306.01 451.53 306.01 453.23 C305.02 453.56 304.03 453.89 303.01 454.23 C302.68 454.89 302.35 455.55 302.01 456.23 C300.69 456.23 299.37 456.23 298.01 456.23 C298.34 456.89 298.67 457.55 299.01 458.23 C298.23 458.31 297.44 458.4 296.64 458.48 C293.86 458.96 293.86 458.96 292.7 461.29 C292.47 461.93 292.25 462.57 292.01 463.23 C292.01 461.91 292.01 460.59 292.01 459.23 C291.76 459.87 291.52 460.51 291.26 461.17 C290.01 463.23 290.01 463.23 287.95 463.86 C287.31 463.98 286.67 464.1 286.01 464.23 C283.89 468.47 284.78 474.07 284.76 478.73 C284.73 480.48 284.73 480.48 284.7 482.27 C284.69 483.93 284.69 483.93 284.68 485.64 C284.67 486.66 284.66 487.69 284.66 488.74 C284.77 489.56 284.89 490.38 285.01 491.23 C286 491.89 286.99 492.55 288.01 493.23 C288.01 494.55 288.01 495.87 288.01 497.23 C288.97 497.6 288.97 497.6 289.95 497.98 C292.01 499.23 292.01 499.23 292.64 501.11 C292.76 501.81 292.88 502.51 293.01 503.23 C293.36 503.89 293.71 504.55 294.07 505.23 C295.01 507.23 295.01 507.23 295.01 511.23 C295.61 511.42 296.21 511.6 296.82 511.79 C300.75 514.37 301.67 518.76 302.7 523.17 C302.85 524.19 302.85 524.19 303.01 525.23 C304 525.56 304.99 525.89 306.01 526.23 C306.01 527.22 306.01 528.21 306.01 529.23 C306.67 529.23 307.33 529.23 308.01 529.23 C308.28 530.16 308.55 531.09 308.82 532.04 C309.98 535.15 310.68 536.08 313.01 538.23 C316.01 542.67 316.01 542.67 316.01 546.23 C317.33 546.56 318.65 546.89 320.01 547.23 C320.01 548.55 320.01 549.87 320.01 551.23 C320.67 550.9 321.33 550.57 322.01 550.23 C322.39 550.97 322.76 551.7 323.15 552.46 C325.94 557.79 328.43 562.23 333.01 566.23 C335.82 568.86 335.82 568.86 338.01 571.23 C338.01 572.22 338.01 573.21 338.01 574.23 C338.8 574.52 339.58 574.81 340.39 575.11 C343.01 576.23 343.01 576.23 345.01 578.23 C345.01 579.22 345.01 580.21 345.01 581.23 C345.77 581.46 346.54 581.68 347.32 581.92 C350.61 583.52 351.19 585.13 353.01 588.23 C354.67 589.24 356.34 590.24 358.01 591.23 C358.68 592.56 359.35 593.9 360.01 595.23 C361.66 596.26 363.33 597.26 365.01 598.23 C368.39 600.89 371.52 603.7 374.45 606.86 C377.23 609.43 379.83 610.69 383.23 612.26 C385.5 613.5 386.49 615.17 388.01 617.23 C390.3 618.44 392.58 619.31 395.01 620.23 C395.01 620.89 395.01 621.55 395.01 622.23 C398.53 624.1 402.08 625.23 405.89 626.35 C408.01 627.23 408.01 627.23 409.38 628.71 C412.48 631.6 417.05 631.98 421.08 632.97 C424.01 634.23 424.01 634.23 425.41 636.86 C425.61 637.64 425.81 638.43 426.01 639.23 C427.21 639.29 427.21 639.29 428.43 639.34 C435.94 639.81 440.71 641.03 447.01 645.23 C450.48 645.72 453.92 646.06 457.41 646.35 C467.56 647.35 476.44 651.87 485.01 657.23 C484.68 657.89 484.35 658.55 484.01 659.23 C484.42 659.64 484.84 660.06 485.26 660.48 C485.84 661.06 486.42 661.64 487.01 662.23 C487.69 662.74 488.38 663.24 489.08 663.77 C491.98 667.47 491.71 670.84 491.7 675.42 C491.74 676.23 491.78 677.04 491.82 677.88 C491.86 685.21 488.84 688.98 484.01 694.23 C483.32 695.02 482.64 695.81 481.93 696.62 C479.76 699.07 477.52 701.43 475.26 703.79 C474.53 704.61 473.79 705.43 473.04 706.27 C467.53 711.97 467.53 711.97 462.98 712.75 C460.27 712.76 457.7 712.61 455.01 712.23 C455.04 713.68 455.04 713.68 455.07 715.17 C455.01 718.23 455.01 718.23 454.01 719.23 C451.82 719.14 449.63 718.98 447.45 718.79 C445.65 718.64 445.65 718.64 443.82 718.48 C442.89 718.4 441.97 718.32 441.01 718.23 C441.01 719.55 441.01 720.87 441.01 722.23 C439.36 722.56 437.71 722.89 436.01 723.23 C436.01 723.89 436.01 724.55 436.01 725.23 C431.48 726.78 426.65 726.15 421.94 725.84 C417.91 725.72 416.28 726.01 413.13 728.62 C412.08 729.91 412.08 729.91 411.01 731.23 C409.01 733.23 409.01 733.23 406.9 733.44 C406.05 733.42 405.2 733.41 404.33 733.39 C403.4 733.38 402.47 733.37 401.52 733.36 C400.06 733.33 400.06 733.33 398.57 733.29 C396.66 733.26 394.74 733.23 392.83 733.2 C391.98 733.19 391.13 733.17 390.25 733.15 C387.84 733.13 387.84 733.13 385.01 734.23 C384.68 734.89 384.35 735.55 384.01 736.23 C382.23 737.01 382.23 737.01 379.95 737.73 C379.14 737.98 378.34 738.24 377.51 738.5 C374.03 739.52 370.54 740.4 367.01 741.23 C366.83 742.22 366.65 743.21 366.46 744.22 C366.21 745.5 365.96 746.79 365.7 748.11 C365.46 749.38 365.21 750.66 364.96 751.97 C364.01 755.23 364.01 755.23 361.01 757.23 C360.21 760.11 360.21 760.11 359.82 763.36 C359.67 764.45 359.51 765.55 359.34 766.68 C359.23 767.52 359.12 768.36 359.01 769.23 C358.02 769.56 357.03 769.89 356.01 770.23 C356.01 774.52 356.01 778.81 356.01 783.23 C354.69 783.89 353.37 784.55 352.01 785.23 C351.93 786.14 351.85 787.05 351.76 787.98 C350.75 792.36 348.63 793.56 345.12 796.13 C343.01 797.23 343.01 797.23 339.01 797.23 C339.67 797.89 340.33 798.55 341.01 799.23 C335.53 800.01 330.23 800.39 324.7 800.36 C323.97 800.35 323.23 800.35 322.47 800.35 C316.62 800.3 310.83 799.93 305.01 799.23 C305.01 798.9 305.01 798.57 305.01 798.23 C304.39 798.12 303.78 798.01 303.14 797.9 C287.81 795.03 287.81 795.03 285.01 792.23 C285.01 792.56 285.01 792.89 285.01 793.23 C266.53 793.23 248.05 793.23 229.01 793.23 C229.01 792.57 229.01 791.91 229.01 791.23 C228.35 792.22 227.69 793.21 227.01 794.23 C222.13 796.18 217.64 797.29 212.39 797.11 C209.07 796.87 209.07 796.87 207.39 798.67 C206.71 799.44 206.71 799.44 206.01 800.23 C203.32 800.92 203.32 800.92 201.01 801.23 C200.68 802.22 200.35 803.21 200.01 804.23 C197.7 804.23 195.39 804.23 193.01 804.23 C192.68 805.22 192.35 806.21 192.01 807.23 C190.36 807.56 188.71 807.89 187.01 808.23 C187.01 809.22 187.01 810.21 187.01 811.23 C186.06 811.21 185.11 811.19 184.14 811.17 C181.11 811 181.11 811 179.01 812.23 C178.56 812.99 178.1 813.76 177.64 814.54 C174.78 819.26 172.11 821.3 167.01 823.23 C166.68 823.89 166.35 824.55 166.01 825.23 C164.69 825.23 163.37 825.23 162.01 825.23 C162.67 825.89 163.33 826.55 164.01 827.23 C162.03 827.89 160.05 828.55 158.01 829.23 C157.68 828.9 157.35 828.57 157.01 828.23 C156.78 828.81 156.56 829.39 156.32 829.98 C154.35 833.37 151.73 835.78 147.89 836.79 C147.27 836.94 146.65 837.08 146.01 837.23 C145.3 838.03 145.3 838.03 144.57 838.86 C144.06 839.31 143.54 839.76 143.01 840.23 C141.34 839.94 139.67 839.61 138.01 839.23 C135.86 841.07 135.86 841.07 135.26 843.61 C133.57 847.17 131.41 848.33 128.01 850.23 C126.68 850.57 125.35 850.91 124.01 851.23 C123.33 852.03 123.33 852.03 122.64 852.86 C122.1 853.31 121.56 853.76 121.01 854.23 C117.82 853.92 117.82 853.92 115.01 853.23 C114.93 853.85 114.85 854.47 114.76 855.11 C114.01 857.23 114.01 857.23 112.01 858.36 C111.35 858.64 110.69 858.93 110.01 859.23 C109.68 859.89 109.35 860.55 109.01 861.23 C107.9 861.17 106.78 861.11 105.64 861.04 C103.84 861.14 103.84 861.14 102.01 861.23 C101.35 862.22 100.69 863.21 100.01 864.23 C98.02 864.92 96.02 865.59 94.01 866.23 C93.68 866.89 93.35 867.55 93.01 868.23 C92.3 868.18 91.59 868.14 90.85 868.09 C84.11 867.84 80.56 868.42 75.01 872.23 C69.34 875.66 63.47 876.34 57.01 877.23 C57.01 877.56 57.01 877.89 57.01 878.23 C48.59 878.28 40.17 878.31 31.74 878.33 C27.83 878.34 23.92 878.36 20.01 878.38 C16.24 878.4 12.46 878.42 8.69 878.42 C7.25 878.42 5.81 878.43 4.37 878.44 C2.35 878.46 0.33 878.46 -1.68 878.46 C-2.83 878.46 -3.98 878.47 -5.16 878.47 C-7.99 878.23 -7.99 878.23 -10.99 876.23 C-13.93 875.59 -16.54 875.21 -19.55 875.36 C-21.99 875.23 -21.99 875.23 -24.17 873.78 C-28.65 871.31 -33.36 871.39 -38.39 870.95 C-42.37 870.15 -44.02 868.9 -46.99 866.23 C-49.32 865.45 -51.54 864.85 -53.93 864.29 C-60.81 862.58 -60.81 862.58 -63.3 859.73 C-65.83 857.48 -68.76 857.1 -71.99 856.23 C-73.99 854.9 -75.99 853.56 -77.99 852.23 C-77.99 851.57 -77.99 850.91 -77.99 850.23 C-79.97 849.9 -81.95 849.57 -83.99 849.23 C-83.99 848.57 -83.99 847.91 -83.99 847.23 C-84.98 846.9 -85.97 846.57 -86.99 846.23 C-87.32 845.57 -87.65 844.91 -87.99 844.23 C-89.37 843.36 -90.8 842.56 -92.24 841.79 C-93.05 841.35 -93.87 840.91 -94.7 840.46 C-95.46 840.05 -96.21 839.65 -96.99 839.23 C-101.02 836.9 -104.64 834.39 -108.18 831.36 C-111.33 828.97 -114.6 827.2 -118.1 825.38 C-119.99 824.23 -119.99 824.23 -120.99 822.23 C-121.77 821.92 -122.56 821.61 -123.36 821.29 C-125.96 820.24 -127.26 819.41 -128.99 817.23 C-128.99 816.57 -128.99 815.91 -128.99 815.23 C-129.92 815.13 -130.84 815.02 -131.8 814.92 C-135.17 814.19 -135.86 813.75 -137.99 811.23 C-140.5 808.99 -142.12 808.19 -145.43 807.29 C-148.99 806.23 -148.99 806.23 -151.18 804.29 C-155.59 801.06 -160.7 800.34 -165.99 799.23 C-165.99 798.57 -165.99 797.91 -165.99 797.23 C-167.29 797.32 -167.29 797.32 -168.61 797.42 C-171.99 797.23 -171.99 797.23 -174.74 795.76 C-178.49 793.99 -181.23 793.73 -185.36 793.55 C-186.45 793.5 -186.45 793.5 -187.56 793.45 C-196.99 793.07 -206.43 793.08 -215.87 793.1 C-219.04 793.11 -222.21 793.1 -225.38 793.09 C-227.39 793.09 -229.41 793.1 -231.43 793.1 C-232.37 793.1 -233.32 793.09 -234.3 793.09 C-235.6 793.1 -235.6 793.1 -236.92 793.1 C-237.69 793.1 -238.45 793.1 -239.24 793.1 C-241.02 793.04 -241.02 793.04 -241.99 794.23 C-257.14 801.71 -278.62 802.95 -294.99 799.23 C-294.99 798.9 -294.99 798.57 -294.99 798.23 C-293.01 797.9 -291.03 797.57 -288.99 797.23 C-289.85 797.31 -290.72 797.4 -291.61 797.48 C-295.83 797.17 -297.74 795.89 -300.99 793.23 C-302.36 790.98 -302.36 790.98 -302.99 789.23 C-303.98 789.23 -304.97 789.23 -305.99 789.23 C-306.26 788 -306.26 788 -306.54 786.75 C-306.92 785.13 -306.92 785.13 -307.3 783.48 C-307.54 782.41 -307.79 781.35 -308.04 780.25 C-308.98 777.27 -310.08 775.65 -311.99 773.23 C-313.88 766.46 -314.63 759.56 -315.43 752.59 C-315.92 749.62 -316.33 747.7 -317.99 745.23 C-319.96 743.86 -321.96 742.52 -323.99 741.23 C-324.32 740.57 -324.65 739.91 -324.99 739.23 C-326.65 738.87 -328.32 738.54 -329.99 738.23 C-330.58 737.89 -331.17 737.55 -331.78 737.2 C-334.66 735.93 -336.85 736.11 -339.99 736.23 C-347.78 736.35 -356.04 736.12 -362.99 732.23 C-362.99 731.57 -362.99 730.91 -362.99 730.23 C-364.64 730.23 -366.29 730.23 -367.99 730.23 C-368.48 728.75 -368.48 728.75 -368.99 727.23 C-369.32 727.89 -369.65 728.55 -369.99 729.23 C-373.95 728.9 -377.91 728.57 -381.99 728.23 C-381.66 727.57 -381.33 726.91 -380.99 726.23 C-383.3 726.23 -385.61 726.23 -387.99 726.23 C-388.65 724.91 -389.31 723.59 -389.99 722.23 C-390.65 722.56 -391.31 722.89 -391.99 723.23 C-394.37 722.89 -394.37 722.89 -397.11 722.29 C-398.02 722.1 -398.93 721.9 -399.87 721.7 C-400.57 721.55 -401.27 721.39 -401.99 721.23 C-401.99 720.57 -401.99 719.91 -401.99 719.23 C-403.31 719.23 -404.63 719.23 -405.99 719.23 C-407.02 718.26 -408.02 717.26 -408.99 716.23 C-410.89 715.38 -410.89 715.38 -412.93 714.79 C-416.54 713.54 -418.32 711.99 -420.99 709.23 C-422.81 708.49 -422.81 708.49 -424.68 707.73 C-426.32 706.99 -426.32 706.99 -427.99 706.23 C-428.61 704.17 -428.61 704.17 -428.99 702.23 C-430.63 701.51 -432.3 700.85 -433.99 700.23 C-435.99 697.23 -435.99 697.23 -435.99 694.23 C-436.61 693.96 -437.23 693.69 -437.86 693.42 C-439.99 692.23 -439.99 692.23 -441.99 689.23 C-442.25 686.66 -442.25 686.66 -442.25 683.61 C-442.26 682.51 -442.26 681.41 -442.26 680.28 C-442.25 679.13 -442.25 677.98 -442.24 676.79 C-442.25 675.65 -442.25 674.5 -442.26 673.32 C-442.26 672.22 -442.26 671.12 -442.25 669.98 C-442.25 668.98 -442.25 667.97 -442.25 666.93 C-441.98 664.16 -441.56 662.52 -439.99 660.23 C-439 659.9 -438.01 659.57 -436.99 659.23 C-436.99 658.24 -436.99 657.25 -436.99 656.23 C-436.66 655.57 -436.33 654.91 -435.99 654.23 C-435.25 654.09 -434.5 653.94 -433.74 653.79 C-430.62 653.15 -428.59 652.04 -425.99 650.23 C-425.66 649.57 -425.33 648.91 -424.99 648.23 C-423.05 647.85 -423.05 647.85 -420.55 647.67 C-419.66 647.59 -418.76 647.52 -417.84 647.44 C-415.94 647.3 -414.04 647.16 -412.14 647.02 C-411.24 646.94 -410.35 646.87 -409.43 646.79 C-408.6 646.73 -407.77 646.67 -406.92 646.61 C-406.28 646.48 -405.65 646.36 -404.99 646.23 C-404.66 645.57 -404.33 644.91 -403.99 644.23 C-402.67 644.23 -401.35 644.23 -399.99 644.23 C-399.66 643.24 -399.33 642.25 -398.99 641.23 C-393.91 640.38 -389.14 640.14 -383.99 640.23 C-383.66 639.24 -383.33 638.25 -382.99 637.23 C-382.99 637.89 -382.99 638.55 -382.99 639.23 C-381.01 638.9 -379.03 638.57 -376.99 638.23 C-376.99 637.57 -376.99 636.91 -376.99 636.23 C-377.65 635.57 -378.31 634.91 -378.99 634.23 C-378.35 634.18 -377.71 634.13 -377.05 634.08 C-376.23 634.01 -375.4 633.93 -374.55 633.86 C-373.73 633.79 -372.9 633.72 -372.05 633.64 C-371.37 633.51 -370.69 633.37 -369.99 633.23 C-369.66 632.57 -369.33 631.91 -368.99 631.23 C-367.01 631.23 -365.03 631.23 -362.99 631.23 C-362.99 629.91 -362.99 628.59 -362.99 627.23 C-360.35 626.9 -357.71 626.57 -354.99 626.23 C-354.66 625.24 -354.33 624.25 -353.99 623.23 C-353.99 623.89 -353.99 624.55 -353.99 625.23 C-352.67 624.57 -351.35 623.91 -349.99 623.23 C-349.99 622.24 -349.99 621.25 -349.99 620.23 C-348.77 619.84 -347.55 619.45 -346.3 619.04 C-342.24 617.54 -339.9 615.48 -336.99 612.23 C-333.99 610.23 -333.99 610.23 -331.61 609.92 C-327.97 608.96 -326.5 606.99 -323.99 604.23 C-320.8 600.97 -317.55 598.08 -313.99 595.23 C-311.3 592.68 -308.86 590.08 -306.49 587.23 C-303.22 583.31 -299.82 579.86 -295.8 576.73 C-292.93 574.17 -292.33 572.69 -290.99 569.23 C-290.35 569.09 -289.71 568.94 -289.05 568.79 C-288.37 568.61 -287.69 568.42 -286.99 568.23 C-286.49 567.24 -286 566.25 -285.49 565.23 C-283.99 562.23 -283.99 562.23 -281.8 561.36 C-281.2 561.31 -280.6 561.27 -279.99 561.23 C-280.14 559.93 -280.14 559.93 -280.3 558.61 C-279.87 553.92 -278.32 552.49 -274.99 549.23 C-274 549.23 -273.01 549.23 -271.99 549.23 C-271.33 545.6 -270.67 541.97 -269.99 538.23 C-269 539.72 -269 539.72 -267.99 541.23 C-265.2 539.84 -265.01 538.07 -263.99 535.23 C-264.65 534.9 -265.31 534.57 -265.99 534.23 C-264.57 533.36 -264.57 533.36 -263.11 532.48 C-258.81 529.38 -257.91 526.56 -256.86 521.48 C-256.61 520.28 -256.61 520.28 -256.36 519.06 C-256.23 518.46 -256.11 517.85 -255.99 517.23 C-255.33 517.89 -254.67 518.55 -253.99 519.23 C-253 518.9 -252.01 518.57 -250.99 518.23 C-251.32 516.58 -251.65 514.93 -251.99 513.23 C-251.33 513.23 -250.67 513.23 -249.99 513.23 C-249.66 509.93 -249.33 506.63 -248.99 503.23 C-248.33 503.89 -247.67 504.55 -246.99 505.23 C-246 504.9 -245.01 504.57 -243.99 504.23 C-244.32 502.58 -244.65 500.93 -244.99 499.23 C-244.33 499.23 -243.67 499.23 -242.99 499.23 C-242.91 498.31 -242.91 498.31 -242.84 497.37 C-242.77 496.56 -242.69 495.75 -242.61 494.92 C-242.54 494.12 -242.47 493.32 -242.4 492.49 C-241.99 490.23 -241.99 490.23 -239.99 487.23 C-240.32 486.57 -240.65 485.91 -240.99 485.23 C-239.67 485.23 -238.35 485.23 -236.99 485.23 C-236.93 483.5 -236.9 481.77 -236.86 480.04 C-236.84 479.08 -236.82 478.12 -236.79 477.12 C-237.23 470.68 -240.81 465.93 -244.99 461.23 C-248.06 458.93 -248.06 458.93 -250.99 457.23 C-251.41 456.74 -251.84 456.24 -252.28 455.73 C-254.7 453.61 -257.06 453.25 -260.18 452.54 C-261.26 452.29 -262.35 452.04 -263.47 451.78 C-264.3 451.6 -265.13 451.42 -265.99 451.23 C-265.66 450.24 -265.33 449.25 -264.99 448.23 C-265.75 448.46 -266.51 448.68 -267.3 448.92 C-268.19 449.02 -269.07 449.12 -269.99 449.23 C-271.61 447.86 -271.61 447.86 -272.99 446.23 C-273.98 445.9 -274.97 445.57 -275.99 445.23 C-276.32 444.9 -276.65 444.57 -276.99 444.23 C-277.98 444.56 -278.97 444.89 -279.99 445.23 C-282.73 444.77 -285.31 443.98 -287.99 443.23 C-287.33 442.9 -286.67 442.57 -285.99 442.23 C-286.98 442.23 -287.97 442.23 -288.99 442.23 C-290.34 441.6 -291.67 440.93 -292.99 440.23 C-296.95 438.41 -300.66 437.74 -304.99 437.23 C-304.99 436.57 -304.99 435.91 -304.99 435.23 C-304 435.23 -303.01 435.23 -301.99 435.23 C-305.29 435.23 -307.83 435.06 -310.99 434.23 C-311.65 433.57 -312.31 432.91 -312.99 432.23 C-314 431.9 -315.01 431.57 -316.05 431.23 C-318.99 430.23 -318.99 430.23 -319.99 428.23 C-320.89 427.8 -320.89 427.8 -321.8 427.36 C-323.99 426.23 -323.99 426.23 -325.93 424.17 C-327.84 422 -327.84 422 -330.55 421.86 C-331.36 421.65 -332.16 421.44 -332.99 421.23 C-334.61 418.36 -334.61 418.36 -335.99 415.23 C-337.36 413.35 -337.36 413.35 -338.99 412.23 C-339.98 412.23 -340.97 412.23 -341.99 412.23 C-342.07 411.28 -342.15 410.33 -342.24 409.36 C-342.49 408.32 -342.73 407.29 -342.99 406.23 C-344.32 405.56 -345.65 404.9 -346.99 404.23 C-352.1 393.82 -351.16 380.14 -347.99 369.23 C-347 369.23 -346.01 369.23 -344.99 369.23 C-344.6 368.1 -344.2 366.96 -343.8 365.79 C-341.99 362.23 -341.99 362.23 -339.3 361.29 C-338.16 361.26 -338.16 361.26 -336.99 361.23 C-336.99 359.58 -336.99 357.93 -336.99 356.23 C-334.32 355.56 -331.65 354.9 -328.99 354.23 C-328.99 353.24 -328.99 352.25 -328.99 351.23 C-324.76 348.76 -320.46 348.54 -315.67 347.99 C-314.78 347.74 -313.9 347.49 -312.99 347.23 C-312.33 345.91 -311.67 344.59 -310.99 343.23 C-308.02 343.23 -305.05 343.23 -301.99 343.23 C-301.99 343.56 -301.99 343.89 -301.99 344.23 C-304.63 344.56 -307.27 344.89 -309.99 345.23 C-308.76 345.23 -307.54 345.05 -306.33 344.91 C-300.31 344.26 -295.7 343.8 -290.18 346.39 C-285.37 348.23 -280.07 348.57 -274.99 349.23 C-274.99 349.89 -274.99 350.55 -274.99 351.23 C-274.23 351.35 -273.46 351.48 -272.68 351.61 C-269.99 352.23 -269.99 352.23 -266.99 354.23 C-264.47 354.66 -262.02 355.02 -259.49 355.29 C-252.32 356.12 -252.32 356.12 -248.99 357.23 C-246.3 357.17 -243.66 357.05 -240.99 356.86 C-240.26 356.81 -239.54 356.77 -238.79 356.72 C-235.67 356.51 -232.97 356.23 -229.99 355.23 C-230.17 350.89 -230.17 350.89 -231.99 347.23 C-233.95 339.87 -234.15 332.68 -233.96 325.1 C-233.78 322.29 -233.78 322.29 -234.99 320.23 C-235.37 315.51 -235.42 310.77 -235.55 306.04 C-235.57 305.3 -235.59 304.56 -235.61 303.79 C-236.04 288.15 -236.1 272.5 -236.11 256.86 C-236.12 255.69 -236.12 254.53 -236.12 253.33 C-236.14 241.78 -236.09 230.23 -235.61 218.69 C-235.58 217.88 -235.54 217.06 -235.51 216.22 C-235.08 207.39 -233.24 199.43 -229.99 191.23 C-229.64 189.9 -229.3 188.57 -228.99 187.23 C-229.65 186.9 -230.31 186.57 -230.99 186.23 C-230.33 186.23 -229.67 186.23 -228.99 186.23 C-229.03 184.99 -229.07 183.76 -229.11 182.48 C-229.13 176.61 -228.08 170.98 -226.99 165.23 C-225.67 164.9 -224.35 164.57 -222.99 164.23 C-223.32 162.25 -223.65 160.27 -223.99 158.23 C-223.33 158.23 -222.67 158.23 -221.99 158.23 C-221.33 153.61 -220.67 148.99 -219.99 144.23 C-218.67 143.9 -217.35 143.57 -215.99 143.23 C-215.79 142.38 -215.6 141.52 -215.4 140.64 C-215.14 139.54 -214.88 138.43 -214.61 137.29 C-214.36 136.19 -214.1 135.09 -213.84 133.95 C-213.56 133.05 -213.28 132.16 -212.99 131.23 C-210.99 130.23 -210.99 130.23 -207.99 129.23 C-207.33 125.93 -206.67 122.63 -205.99 119.23 C-205 118.9 -204.01 118.57 -202.99 118.23 C-202.99 117.24 -202.99 116.25 -202.99 115.23 C-202.51 114.8 -202.04 114.36 -201.55 113.92 C-199.37 111.56 -199.34 109.36 -198.99 106.23 C-198.66 106.89 -198.33 107.55 -197.99 108.23 C-195.73 106.13 -194.01 104.26 -192.43 101.61 C-190.99 99.23 -190.99 99.23 -187.99 97.23 C-187.85 96.46 -187.71 95.68 -187.57 94.89 C-186.81 91.41 -185.31 90.15 -182.74 87.73 C-181.93 86.95 -181.11 86.17 -180.28 85.37 C-179.52 84.66 -178.77 83.96 -177.99 83.23 C-174.33 79.73 -174.33 79.73 -171.49 75.61 C-169.7 72.78 -167.83 71.91 -164.99 70.23 C-164.68 69.59 -164.37 68.95 -164.05 68.29 C-162.99 66.23 -162.99 66.23 -160.28 64.45 C-156.88 62.15 -154.12 59.55 -151.3 56.61 C-147.14 52.3 -144.08 49.22 -137.99 48.23 C-137.66 46.91 -137.33 45.59 -136.99 44.23 C-136.36 44.13 -135.74 44.03 -135.09 43.93 C-134.27 43.78 -133.46 43.63 -132.61 43.48 C-131.8 43.34 -130.99 43.2 -130.15 43.06 C-127.82 42.43 -127.82 42.43 -126.86 40.22 C-126.43 39.24 -126.43 39.24 -125.99 38.23 C-124.34 37.51 -122.68 36.84 -120.99 36.23 C-120.66 35.57 -120.33 34.91 -119.99 34.23 C-118.67 34.23 -117.35 34.23 -115.99 34.23 C-115.66 32.91 -115.33 31.59 -114.99 30.23 C-114.35 30.11 -113.71 29.99 -113.05 29.86 C-111.82 29.61 -111.82 29.61 -110.55 29.36 C-109.73 29.19 -108.9 29.03 -108.05 28.86 C-107.37 28.65 -106.69 28.45 -105.99 28.23 C-105.66 27.57 -105.33 26.91 -104.99 26.23 C-104.99 26.89 -104.99 27.55 -104.99 28.23 C-103.01 27.74 -103.01 27.74 -100.99 27.23 C-100.99 26.57 -100.99 25.91 -100.99 25.23 C-101.65 24.57 -102.31 23.91 -102.99 23.23 C-102.29 23.11 -101.59 22.99 -100.87 22.86 C-99.96 22.7 -99.05 22.53 -98.11 22.36 C-96.76 22.11 -96.76 22.11 -95.37 21.86 C-92.82 21.4 -92.82 21.4 -90.99 19.23 C-90.99 19.89 -90.99 20.55 -90.99 21.23 C-87.74 20.14 -87.74 20.14 -84.99 18.23 C-85.65 17.57 -86.31 16.91 -86.99 16.23 C-85.84 16.11 -84.7 15.99 -83.52 15.86 C-82.03 15.69 -80.54 15.53 -79.05 15.36 C-78.3 15.28 -77.54 15.2 -76.76 15.12 C-74.83 14.89 -72.91 14.57 -70.99 14.23 C-70.66 13.57 -70.33 12.91 -69.99 12.23 C-68.34 12.56 -66.69 12.89 -64.99 13.23 C-64.66 11.91 -64.33 10.59 -63.99 9.23 C-63.21 9.13 -62.43 9.02 -61.63 8.91 C-58.12 8.43 -54.62 7.92 -51.11 7.42 C-49.89 7.25 -48.67 7.09 -47.41 6.92 C-46.24 6.75 -45.07 6.57 -43.87 6.4 C-42.79 6.25 -41.71 6.09 -40.6 5.94 C-37.66 5.45 -37.66 5.45 -35.99 2.23 C-24.35 -0.58 -11.89 -0.05 0 0 Z M269.01 164.23 C269.01 165.88 269.01 167.53 269.01 169.23 C270 169.73 270 169.73 271.01 170.23 C270.68 168.25 270.35 166.27 270.01 164.23 C269.68 164.23 269.35 164.23 269.01 164.23 Z M277.01 218.23 C278.01 220.23 278.01 220.23 278.01 220.23 Z M278.01 294.23 C279.01 296.23 279.01 296.23 279.01 296.23 Z M278.01 297.23 C279.01 300.23 279.01 300.23 279.01 300.23 Z M277.01 303.23 C277.01 305.54 277.01 307.85 277.01 310.23 C277.34 310.23 277.67 310.23 278.01 310.23 C278.01 307.92 278.01 305.61 278.01 303.23 C277.68 303.23 277.35 303.23 277.01 303.23 Z M277.01 317.23 C277.01 319.21 277.01 321.19 277.01 323.23 C277.34 323.23 277.67 323.23 278.01 323.23 C278.01 321.25 278.01 319.27 278.01 317.23 C277.68 317.23 277.35 317.23 277.01 317.23 Z M277.01 324.23 C277.01 326.21 277.01 328.19 277.01 330.23 C277.34 330.23 277.67 330.23 278.01 330.23 C278.01 328.25 278.01 326.27 278.01 324.23 C277.68 324.23 277.35 324.23 277.01 324.23 Z M-232.99 330.23 C-232.99 332.21 -232.99 334.19 -232.99 336.23 C-232.66 336.23 -232.33 336.23 -231.99 336.23 C-231.99 334.25 -231.99 332.27 -231.99 330.23 C-232.32 330.23 -232.65 330.23 -232.99 330.23 Z M277.01 346.23 C277.01 348.87 277.01 351.51 277.01 354.23 C277.34 354.23 277.67 354.23 278.01 354.23 C278.01 351.59 278.01 348.95 278.01 346.23 C277.68 346.23 277.35 346.23 277.01 346.23 Z M-260.99 448.23 C-260.66 448.89 -260.33 449.55 -259.99 450.23 C-259.33 449.9 -258.67 449.57 -257.99 449.23 C-258.98 448.9 -259.97 448.57 -260.99 448.23 Z M-397.99 718.23 C-393.99 719.23 -393.99 719.23 -393.99 719.23 Z M-375.99 725.23 C-371.99 726.23 -371.99 726.23 -371.99 726.23 Z M-342.99 732.23 C-342.99 732.56 -342.99 732.89 -342.99 733.23 C-340.68 733.23 -338.37 733.23 -335.99 733.23 C-335.99 732.9 -335.99 732.57 -335.99 732.23 C-338.3 732.23 -340.61 732.23 -342.99 732.23 Z M-353.99 733.23 C-353.99 733.56 -353.99 733.89 -353.99 734.23 C-350.36 734.23 -346.73 734.23 -342.99 734.23 C-342.99 733.9 -342.99 733.57 -342.99 733.23 C-346.62 733.23 -350.25 733.23 -353.99 733.23 Z M353.01 776.23 C354.01 779.23 354.01 779.23 354.01 779.23 Z M-195.99 789.23 C-195.99 789.56 -195.99 789.89 -195.99 790.23 C-194.34 790.23 -192.69 790.23 -190.99 790.23 C-190.99 789.9 -190.99 789.57 -190.99 789.23 C-192.64 789.23 -194.29 789.23 -195.99 789.23 Z M231.01 789.23 C231.01 789.56 231.01 789.89 231.01 790.23 C232.99 790.23 234.97 790.23 237.01 790.23 C237.01 789.9 237.01 789.57 237.01 789.23 C235.03 789.23 233.05 789.23 231.01 789.23 Z M275.01 789.23 C275.01 789.56 275.01 789.89 275.01 790.23 C277.65 790.23 280.29 790.23 283.01 790.23 C283.01 789.9 283.01 789.57 283.01 789.23 C280.37 789.23 277.73 789.23 275.01 789.23 Z M-231.99 790.23 C-231.99 790.56 -231.99 790.89 -231.99 791.23 C-229.02 791.23 -226.05 791.23 -222.99 791.23 C-222.99 790.9 -222.99 790.57 -222.99 790.23 C-225.96 790.23 -228.93 790.23 -231.99 790.23 Z M237.01 790.23 C237.01 790.56 237.01 790.89 237.01 791.23 C240.64 791.23 244.27 791.23 248.01 791.23 C248.01 790.9 248.01 790.57 248.01 790.23 C244.38 790.23 240.75 790.23 237.01 790.23 Z M266.01 790.23 C266.01 790.56 266.01 790.89 266.01 791.23 C268.98 791.23 271.95 791.23 275.01 791.23 C275.01 790.9 275.01 790.57 275.01 790.23 C272.04 790.23 269.07 790.23 266.01 790.23 Z M301.01 795.23 C301.01 795.56 301.01 795.89 301.01 796.23 C302.99 796.23 304.97 796.23 307.01 796.23 C307.01 795.9 307.01 795.57 307.01 795.23 C305.03 795.23 303.05 795.23 301.01 795.23 Z M-274.99 796.23 C-274.99 796.56 -274.99 796.89 -274.99 797.23 C-267.4 797.23 -259.81 797.23 -251.99 797.23 C-251.99 796.9 -251.99 796.57 -251.99 796.23 C-259.58 796.23 -267.17 796.23 -274.99 796.23 Z M-165.99 796.23 C-165.99 796.56 -165.99 796.89 -165.99 797.23 C-163.68 797.23 -161.37 797.23 -158.99 797.23 C-158.99 796.9 -158.99 796.57 -158.99 796.23 C-161.3 796.23 -163.61 796.23 -165.99 796.23 Z M309.01 796.23 C309.01 796.56 309.01 796.89 309.01 797.23 C310.66 797.23 312.31 797.23 314.01 797.23 C314.01 796.9 314.01 796.57 314.01 796.23 C312.36 796.23 310.71 796.23 309.01 796.23 Z M-279.99 797.23 C-279.99 797.56 -279.99 797.89 -279.99 798.23 C-278.34 798.23 -276.69 798.23 -274.99 798.23 C-274.99 797.9 -274.99 797.57 -274.99 797.23 C-276.64 797.23 -278.29 797.23 -279.99 797.23 Z M-37.99 867.23 C-37.99 867.56 -37.99 867.89 -37.99 868.23 C-35.68 868.23 -33.37 868.23 -30.99 868.23 C-30.99 867.9 -30.99 867.57 -30.99 867.23 C-33.3 867.23 -35.61 867.23 -37.99 867.23 Z M55.01 873.23 C55.01 873.56 55.01 873.89 55.01 874.23 C57.98 874.23 60.95 874.23 64.01 874.23 C64.01 873.9 64.01 873.57 64.01 873.23 C61.04 873.23 58.07 873.23 55.01 873.23 Z M3.01 875.23 C3.01 875.56 3.01 875.89 3.01 876.23 C4.66 876.23 6.31 876.23 8.01 876.23 C8.01 875.9 8.01 875.57 8.01 875.23 C6.36 875.23 4.71 875.23 3.01 875.23 Z M51.01 875.23 C55.01 876.23 55.01 876.23 55.01 876.23 Z M23.01 876.23 C23.01 876.56 23.01 876.89 23.01 877.23 C29.61 877.23 36.21 877.23 43.01 877.23 C43.01 876.9 43.01 876.57 43.01 876.23 C36.41 876.23 29.81 876.23 23.01 876.23 Z " fill="#dec5af" transform="translate(617.98828125,196.76953125)"/>
<path d="M0 0 C1.27 -0 2.53 -0.01 3.83 -0.01 C5.22 -0.01 6.6 -0.01 7.98 -0 C9.4 -0 10.83 -0.01 12.25 -0.01 C15.24 -0.01 18.23 -0.01 21.22 -0 C25.03 0 28.83 0 32.63 -0 C35.58 -0.01 38.53 -0.01 41.47 -0 C42.87 -0 44.27 -0 45.68 -0.01 C53.76 -0.02 61.72 0.21 69.75 1.13 C66.74 2.71 64.12 3.57 60.75 4.13 C60.75 4.46 60.75 4.79 60.75 5.13 C52.33 5.18 43.91 5.21 35.48 5.23 C31.57 5.24 27.66 5.26 23.75 5.28 C19.98 5.3 16.2 5.31 12.43 5.32 C10.99 5.32 9.55 5.33 8.11 5.34 C6.09 5.36 4.08 5.36 2.06 5.36 C0.34 5.36 0.34 5.36 -1.42 5.37 C-5.18 5.05 -7.14 3.2 -10.25 1.13 C-6.79 0.07 -3.61 0 0 0 Z M6.75 2.13 C6.75 2.46 6.75 2.79 6.75 3.13 C8.4 3.13 10.05 3.13 11.75 3.13 C11.75 2.8 11.75 2.47 11.75 2.13 C10.1 2.13 8.45 2.13 6.75 2.13 Z M54.75 2.13 C58.75 3.13 58.75 3.13 58.75 3.13 Z M26.75 3.13 C26.75 3.46 26.75 3.79 26.75 4.13 C33.35 4.13 39.95 4.13 46.75 4.13 C46.75 3.8 46.75 3.47 46.75 3.13 C40.15 3.13 33.55 3.13 26.75 3.13 Z " fill="#dec5af" transform="translate(614.246337890625,1069.87060546875)"/>
<path d="M0 0 C1.25 0.04 1.25 0.04 2.52 0.07 C5.2 0.15 7.87 0.23 10.54 0.32 C14.03 0.42 17.51 0.52 21 0.62 C21.84 0.65 22.68 0.67 23.55 0.7 C30.28 0.89 37 0.94 43.73 0.88 C44.23 3.35 44.23 3.35 44.73 5.88 C43.71 5.81 42.69 5.74 41.64 5.66 C28.62 4.81 15.65 4.76 2.61 4.82 C0.47 4.82 -1.66 4.83 -3.8 4.83 C-8.95 4.84 -14.11 4.86 -19.27 4.88 C-18.61 3.56 -17.95 2.24 -17.27 0.88 C-16.16 0.9 -15.04 0.92 -13.89 0.94 C-9.16 0.86 -4.91 -0.17 0 0 Z M-10.27 1.88 C-10.27 2.21 -10.27 2.54 -10.27 2.88 C-7.3 2.88 -4.33 2.88 -1.27 2.88 C-1.27 2.55 -1.27 2.22 -1.27 1.88 C-4.24 1.88 -7.21 1.88 -10.27 1.88 Z " fill="#040504" transform="translate(396.26953125,985.12109375)"/>
<path d="M0 0 C0.72 -0 1.44 -0 2.18 -0.01 C3.69 -0.01 5.2 -0 6.71 0 C9 0.02 11.28 0 13.56 -0.01 C30.48 -0.03 30.48 -0.03 36.13 2.27 C36.79 3.26 37.45 4.25 38.13 5.27 C19.65 5.27 1.17 5.27 -17.87 5.27 C-15.53 1.76 -14.06 1.49 -10.07 0.62 C-6.7 0.08 -3.41 0.01 0 0 Z M-9.87 2.27 C-9.87 2.6 -9.87 2.93 -9.87 3.27 C-6.24 3.27 -2.61 3.27 1.13 3.27 C1.13 2.94 1.13 2.61 1.13 2.27 C-2.5 2.27 -6.13 2.27 -9.87 2.27 Z M19.13 2.27 C19.13 2.6 19.13 2.93 19.13 3.27 C22.1 3.27 25.07 3.27 28.13 3.27 C28.13 2.94 28.13 2.61 28.13 2.27 C25.16 2.27 22.19 2.27 19.13 2.27 Z " fill="#dec5af" transform="translate(864.8671875,984.734375)"/>
<path d="M0 0 C0.99 0 1.98 0 3 0 C3 0.66 3 1.32 3 2 C3.66 2 4.32 2 5 2 C8.04 4.74 10.44 7.18 12 11 C12.66 11 13.32 11 14 11 C15.62 12.38 15.62 12.38 17 14 C17 14.66 17 15.32 17 16 C17.58 16.26 18.16 16.51 18.76 16.78 C22.89 19.03 25.95 22.62 29.25 25.94 C30.37 27.03 30.37 27.03 31.51 28.15 C32.56 29.2 32.56 29.2 33.64 30.28 C34.29 30.92 34.93 31.56 35.59 32.22 C37 34 37 34 37 37 C37.99 37 38.98 37 40 37 C40 38.32 40 39.64 40 41 C39.34 41 38.68 41 38 41 C37.67 40.34 37.34 39.68 37 39 C36.01 38.67 35.02 38.34 34 38 C34 37.01 34 36.02 34 35 C32.68 34.34 31.36 33.68 30 33 C30 32.34 30 31.68 30 31 C29.01 30.67 28.02 30.34 27 30 C27 29.34 27 28.68 27 28 C25.68 27.67 24.36 27.34 23 27 C23 26.01 23 25.02 23 24 C22.01 23.67 21.02 23.34 20 23 C20 22.34 20 21.68 20 21 C19.34 21 18.68 21 18 21 C18 20.34 18 19.68 18 19 C17.4 18.73 16.8 18.46 16.19 18.19 C13.04 16.48 11.3 14.4 9.12 11.56 C7.09 8.91 7.09 8.91 4.38 7 C1.77 4.81 0.98 3.21 0 0 Z " fill="#979492" transform="translate(939,762)"/>
<path d="M0 0 C0.33 0 0.66 0 1 0 C1 0.75 0.99 1.49 0.99 2.26 C0.95 9.28 0.92 16.29 0.9 23.31 C0.89 26.92 0.87 30.53 0.85 34.14 C0.83 37.62 0.82 41.1 0.81 44.58 C0.8 46.56 0.79 48.54 0.77 50.51 C0.77 51.71 0.77 52.91 0.77 54.15 C0.77 55.21 0.76 56.27 0.76 57.36 C0.81 60.23 0.81 60.23 3 63 C1.35 62.67 -0.3 62.34 -2 62 C-2 43.52 -2 25.04 -2 6 C-1.34 6 -0.68 6 0 6 C0 5.01 0 4.02 0 3 C-0.66 2.67 -1.32 2.34 -2 2 C-1.34 2 -0.68 2 0 2 C0 1.34 0 0.68 0 0 Z " fill="#121211" transform="translate(897,491)"/>
<path d="M0 0 C0 0.66 0 1.32 0 2 C-64.35 1.5 -64.35 1.5 -130 1 C-130 0.67 -130 0.34 -130 0 C-129.37 -0 -128.74 -0.01 -128.09 -0.01 C-112.76 -0.12 -97.43 -0.22 -82.1 -0.34 C-74.68 -0.39 -67.27 -0.45 -59.85 -0.5 C-53.39 -0.54 -46.93 -0.59 -40.47 -0.64 C-37.05 -0.66 -33.62 -0.69 -30.2 -0.71 C-26.38 -0.73 -22.56 -0.76 -18.75 -0.79 C-17.04 -0.8 -17.04 -0.8 -15.3 -0.81 C-13.74 -0.83 -13.74 -0.83 -12.15 -0.84 C-10.8 -0.85 -10.8 -0.85 -9.41 -0.86 C-7.02 -0.91 -7.02 -0.91 -4.87 -1.63 C-3 -2 -3 -2 0 0 Z " fill="#dec5af" transform="translate(709,210)"/>
<path d="M0 0 C0 3 0 3 -1.46 4.81 C-2.49 5.81 -2.49 5.81 -3.53 6.84 C-4.3 7.61 -5.07 8.37 -5.87 9.16 C-6.71 9.98 -7.56 10.8 -8.43 11.65 C-9.28 12.5 -10.14 13.35 -11.03 14.22 C-13.78 16.95 -16.55 19.66 -19.31 22.38 C-22.07 25.08 -24.82 27.79 -27.57 30.51 C-29.28 32.2 -30.99 33.88 -32.71 35.56 C-33.49 36.34 -34.28 37.11 -35.08 37.9 C-35.77 38.57 -36.45 39.25 -37.16 39.94 C-39.13 42.15 -40.56 44.42 -42 47 C-43.32 46.67 -44.64 46.34 -46 46 C-44.62 44 -44.62 44 -43 42 C-42.34 42 -41.68 42 -41 42 C-41 41.34 -41 40.68 -41 40 C-40.34 40 -39.68 40 -39 40 C-39 39.34 -39 38.68 -39 38 C-37.87 36.83 -36.73 35.68 -35.55 34.55 C-33.78 32.78 -32.18 30.91 -30.56 29 C-27.6 25.58 -24.52 22.83 -21 20 C-19.31 18.35 -17.65 16.69 -16 15 C-15.2 14.22 -14.39 13.43 -13.56 12.62 C-11.58 10.59 -9.8 8.56 -8 6.38 C-5.62 3.55 -3.34 1.67 0 0 Z " fill="#dec5af" transform="translate(474,258)"/>
<path d="M0 0 C7.59 0 15.18 0 23 0 C23 0.66 23 1.32 23 2 C26.17 1.86 29.33 1.71 32.5 1.56 C33.39 1.52 34.27 1.48 35.19 1.44 C39.3 1.25 43.36 0.99 47.44 0.41 C51.27 -0.03 53.49 0.51 57 2 C57 2.33 57 2.66 57 3 C35.55 3 14.1 3 -8 3 C-8 2.67 -8 2.34 -8 2 C-5.36 2 -2.72 2 0 2 C0 1.34 0 0.68 0 0 Z " fill="#000100" transform="translate(618,1072)"/>
<path d="M0 0 C1.84 0.14 3.68 0.24 5.52 0.32 C6.54 0.36 7.56 0.4 8.62 0.44 C10.2 0.5 10.2 0.5 11.81 0.56 C13.42 0.63 13.42 0.63 15.07 0.69 C17.71 0.8 20.36 0.9 23 1 C23 1.33 23 1.66 23 2 C14.32 3.93 5.86 4.19 -3 4.19 C-4.65 4.19 -4.65 4.19 -6.33 4.19 C-11.04 4.16 -15.39 4.05 -20 3 C-20 2.67 -20 2.34 -20 2 C-17.61 1.47 -15.21 0.95 -12.81 0.44 C-12.14 0.29 -11.47 0.13 -10.77 -0.02 C-6.75 -0.86 -3.96 -0.84 0 0 Z M-5 1 C-5 1.33 -5 1.66 -5 2 C-3.35 2 -1.7 2 0 2 C0 1.67 0 1.34 0 1 C-1.65 1 -3.3 1 -5 1 Z " fill="#20201F" transform="translate(343,993)"/>
<path d="M0 0 C1.56 0.04 3.11 0.1 4.67 0.16 C5.5 0.18 6.33 0.21 7.19 0.23 C9.86 0.32 12.54 0.41 15.21 0.51 C18.7 0.63 22.18 0.74 25.67 0.85 C26.51 0.87 27.35 0.9 28.22 0.93 C34.95 1.14 41.66 1.2 48.4 1.14 C48.89 3.61 48.89 3.61 49.4 6.14 C48.74 5.48 48.08 4.82 47.4 4.14 C45.49 3.81 45.49 3.81 43.28 3.83 C42.42 3.82 41.57 3.8 40.69 3.78 C39.77 3.77 38.85 3.77 37.9 3.76 C36.47 3.73 36.47 3.73 35.01 3.7 C31.95 3.65 28.89 3.61 25.84 3.57 C22.8 3.53 19.77 3.48 16.74 3.43 C14.85 3.4 12.96 3.37 11.08 3.35 C5.45 3.26 -0.02 2.84 -5.6 2.14 C-3.6 0.14 -3.6 0.14 0 0 Z " fill="#2F2F2E" transform="translate(391.600830078125,984.86474609375)"/>
<path d="M0 0 C0.33 0 0.66 0 1 0 C2.69 5.13 3.27 9.7 3.2 15.12 C3.19 15.87 3.19 16.61 3.19 17.38 C3.18 19.73 3.15 22.08 3.12 24.44 C3.11 26.04 3.11 27.65 3.1 29.26 C3.08 33.17 3.04 37.09 3 41 C1.51 41.5 1.51 41.5 0 42 C0 28.14 0 14.28 0 0 Z " fill="#A7A4A2" transform="translate(383,406)"/>
<path d="M0 0 C0.71 0 1.41 0.01 2.14 0.01 C16.27 0.15 16.27 0.15 19.25 3.12 C13.77 3.9 8.47 4.29 2.94 4.25 C2.2 4.25 1.47 4.25 0.71 4.24 C-5.14 4.2 -10.93 3.83 -16.75 3.12 C-11.32 0.11 -6.1 -0.04 0 0 Z " fill="#141413" transform="translate(939.75,992.875)"/>
<path d="M0 0 C3.11 1.5 6.12 3.08 9 5 C9 5.66 9 6.32 9 7 C9.6 7.27 10.2 7.54 10.81 7.81 C13 9 14.41 10.1 16 12 C16 12.66 16 13.32 16 14 C16.99 14.33 17.98 14.66 19 15 C19 15.66 19 16.32 19 17 C19.99 17.33 20.98 17.66 22 18 C22.33 18.99 22.66 19.98 23 21 C19 21 19 21 16.86 19.32 C16.16 18.6 15.47 17.87 14.75 17.12 C14.04 16.41 13.34 15.69 12.61 14.95 C11 13 11 13 11 11 C10.42 10.73 9.83 10.46 9.23 10.18 C6.99 8.99 5.19 7.69 3.25 6.06 C2.64 5.56 2.02 5.05 1.39 4.54 C0 3 0 3 0 0 Z " fill="#82807E" transform="translate(362,639)"/>
<path d="M0 0 C0.99 0 1.98 0 3 0 C3.47 1.01 3.95 2.02 4.44 3.06 C6.78 7.2 9.96 9.58 13.78 12.32 C16.07 14.05 18.02 15.93 20 18 C19.67 18.66 19.34 19.32 19 20 C14.08 19.58 12.23 17.62 9 14 C8.41 13.34 7.81 12.68 7.2 12 C0 3.9 0 3.9 0 0 Z " fill="#A6A3A1" transform="translate(279,596)"/>
<path d="M0 0 C4.28 0.48 6.13 2.99 9 6 C9.93 6.7 10.86 7.4 11.81 8.12 C12.53 8.74 13.26 9.36 14 10 C14 10.99 14 11.98 14 13 C14.66 13 15.32 13 16 13 C16 13.66 16 14.32 16 15 C17.32 15.33 18.64 15.66 20 16 C19.34 17.32 18.68 18.64 18 20 C17.67 19.34 17.34 18.68 17 18 C16.01 17.67 15.02 17.34 14 17 C13.67 16.01 13.34 15.02 13 14 C11.34 13.32 9.67 12.65 8 12 C6 9 6 9 6 6 C5.2 5.75 4.39 5.5 3.56 5.25 C1 4 1 4 0.19 1.88 C0.13 1.26 0.06 0.64 0 0 Z " fill="#989694" transform="translate(817,264)"/>
<path d="M0 0 C3.61 1.53 5.99 3.69 8.75 6.44 C9.55 7.22 10.35 8 11.17 8.81 C13 11 13 11 13 14 C13.99 14 14.98 14 16 14 C16 15.32 16 16.64 16 18 C15.34 18 14.68 18 14 18 C13.67 17.34 13.34 16.68 13 16 C12.01 15.67 11.02 15.34 10 15 C10 14.01 10 13.02 10 12 C8.68 11.34 7.36 10.68 6 10 C6 9.34 6 8.68 6 8 C5.01 7.67 4.02 7.34 3 7 C3 6.34 3 5.68 3 5 C1.68 4.67 0.36 4.34 -1 4 C-0.67 2.68 -0.34 1.36 0 0 Z " fill="#9B9896" transform="translate(963,785)"/>
<path d="M0 0 C0.33 0 0.66 0 1 0 C2.09 7.87 2.12 15.62 2.06 23.56 C2.06 24.86 2.05 26.15 2.05 27.49 C2.04 30.66 2.02 33.83 2 37 C0.5 35.98 0.5 35.98 -1 34 C-1.19 31.33 -1.21 28.92 -1.07 26.27 C-1.05 25.52 -1.02 24.77 -0.99 24 C-0.91 21.6 -0.8 19.21 -0.69 16.81 C-0.62 15.19 -0.56 13.56 -0.5 11.94 C-0.35 7.96 -0.18 3.98 0 0 Z " fill="#222221" transform="translate(896,381)"/>
<path d="M0 0 C0.66 0.33 1.32 0.66 2 1 C0.9 4.29 0.22 4.88 -2.38 7 C-8.52 12.2 -14.22 17.94 -19.7 23.83 C-21 25 -21 25 -23 25 C-20.5 18.86 -14.95 15.13 -10 11 C-6.36 7.54 -3.16 3.88 0 0 Z " fill="#7E7E7D" transform="translate(321,774)"/>
<path d="M0 0 C9.57 0 19.14 0 29 0 C29.33 0.99 29.66 1.98 30 3 C26.05 3.07 22.1 3.13 18.15 3.16 C16.14 3.19 14.13 3.23 12.13 3.26 C10.87 3.27 9.62 3.28 8.32 3.29 C6.58 3.32 6.58 3.32 4.8 3.34 C3.87 3.23 2.95 3.12 2 3 C1.34 2.01 0.68 1.02 0 0 Z " fill="#A6A3A1" transform="translate(948,550)"/>
<path d="M0 0 C0.33 0 0.66 0 1 0 C1.02 0.89 1.04 1.79 1.06 2.71 C1.14 6.02 1.22 9.34 1.32 12.65 C1.36 14.09 1.39 15.52 1.42 16.96 C1.47 19.02 1.53 21.08 1.59 23.14 C1.62 24.39 1.65 25.63 1.68 26.91 C1.77 30.17 1.77 30.17 4 33 C2.35 32.67 0.7 32.34 -1 32 C-1.03 27.79 -1.05 23.58 -1.06 19.38 C-1.07 18.19 -1.08 17 -1.09 15.77 C-1.09 14.62 -1.09 13.46 -1.1 12.27 C-1.1 11.22 -1.11 10.16 -1.11 9.07 C-1 5.97 -0.58 3.05 0 0 Z " fill="#252523" transform="translate(896,521)"/>
<path d="M0 0 C0.84 0 1.69 0.01 2.56 0.01 C3.87 0.02 3.87 0.02 5.2 0.04 C6.09 0.04 6.98 0.04 7.89 0.05 C10.08 0.06 12.27 0.08 14.45 0.1 C14.12 0.76 13.79 1.42 13.45 2.1 C-2.59 5.07 -2.59 5.07 -8.55 1.1 C-5.62 0.26 -3.04 -0.02 0 0 Z " fill="#898685" transform="translate(612.546875,1069.90234375)"/>
<path d="M0 0 C-0.33 0.99 -0.66 1.98 -1 3 C-9.58 3.25 -17.58 2.7 -26 1 C-26 0.67 -26 0.34 -26 0 C-24.39 0.02 -24.39 0.02 -22.75 0.04 C-21.31 0.04 -19.87 0.05 -18.44 0.06 C-17.73 0.07 -17.03 0.08 -16.3 0.09 C-12.82 0.1 -9.63 -0.06 -6.16 -0.57 C-3 -1 -3 -1 0 0 Z " fill="#131312" transform="translate(285,930)"/>
<path d="M0 0 C0.33 0 0.66 0 1 0 C1.23 3.75 1.43 7.5 1.62 11.25 C1.69 12.31 1.75 13.38 1.82 14.47 C1.87 15.5 1.92 16.52 1.98 17.58 C2.03 18.52 2.08 19.46 2.14 20.43 C1.99 23.15 1.39 24.69 0 27 C-1.13 22.47 -1.15 18.13 -1.12 13.5 C-1.13 12.75 -1.13 12.01 -1.14 11.24 C-1.13 7.36 -0.95 3.79 0 0 Z " fill="#090A08" transform="translate(269,570)"/>
<path d="M0 0 C0.66 0.33 1.32 0.66 2 1 C1.29 1.63 0.58 2.25 -0.15 2.9 C-1.07 3.72 -1.99 4.53 -2.94 5.38 C-4.31 6.59 -4.31 6.59 -5.71 7.84 C-8.04 9.79 -8.04 9.79 -9 12 C-9.66 12 -10.32 12 -11 12 C-11.25 12.6 -11.5 13.2 -11.75 13.81 C-13.16 16.29 -14.65 17.43 -17 19 C-15.59 14.53 -13.36 12.2 -10 9 C-8.98 7.68 -7.98 6.35 -7 5 C-4.82 2.82 -2.73 1.43 0 0 Z " fill="#A6A3A1" transform="translate(325,784)"/>
<path d="M0 0 C2.48 0.99 2.48 0.99 5 2 C5.19 4.88 5.19 4.88 5 8 C1.15 10.57 -0.59 9.83 -5 9 C-3 7 -3 7 0 6 C0 4.02 0 2.04 0 0 Z " fill="#5F5E5C" transform="translate(388,546)"/>
<path d="M0 0 C0.33 0 0.66 0 1 0 C3.76 6.82 3.19 13.82 2 21 C1.34 21.33 0.68 21.66 0 22 C0 14.74 0 7.48 0 0 Z " fill="#7B7977" transform="translate(383,406)"/>
<path d="M0 0 C0.66 0.99 1.32 1.98 2 3 C-3.61 3 -9.22 3 -15 3 C-15 2.34 -15 1.68 -15 1 C-9.93 0.15 -5.15 -0.35 0 0 Z " fill="#0E0F0E" transform="translate(901,987)"/>
<path d="M0 0 C3.11 1.5 6.12 3.08 9 5 C9 5.66 9 6.32 9 7 C10.32 7.66 11.64 8.32 13 9 C8.63 9 7.51 8.37 4 6 C3.24 5.5 2.47 5.01 1.69 4.5 C1.13 4 0.57 3.51 0 3 C0 2.01 0 1.02 0 0 Z " fill="#A3A09E" transform="translate(362,639)"/>
<path d="M0 0 C2.61 0.11 5.21 0.24 7.81 0.38 C8.55 0.41 9.29 0.44 10.05 0.47 C13.82 0.67 15.8 0.86 19 3 C13.06 3 7.12 3 1 3 C0.67 2.01 0.34 1.02 0 0 Z " fill="#212120" transform="translate(1066,843)"/>
<path d="M0 0 C0.7 0.01 1.4 0.03 2.13 0.04 C3.86 0.08 5.58 0.13 7.31 0.19 C7.31 0.85 7.31 1.51 7.31 2.19 C1.26 3.08 -4.58 3.3 -10.69 3.19 C-7.98 -0.77 -4.33 -0.16 0 0 Z " fill="#1A1B19" transform="translate(1013.6875,929.8125)"/>
<path d="M0 0 C3.8 1.49 5.61 3.76 8 7 C7.34 7.66 6.68 8.32 6 9 C5.01 8.34 4.02 7.68 3 7 C3 6.34 3 5.68 3 5 C1.68 4.67 0.36 4.34 -1 4 C-0.67 2.68 -0.34 1.36 0 0 Z " fill="#9D9A98" transform="translate(963,785)"/>
<path d="M0 0 C0.99 0 1.98 0 3 0 C3 0.66 3 1.32 3 2 C3.66 2 4.32 2 5 2 C7.69 4.25 7.69 4.25 10 7 C9.64 9.17 9.64 9.17 9 11 C1.33 5.03 1.33 5.03 0 0 Z " fill="#82807E" transform="translate(939,762)"/>
<path d="M0 0 C0.89 0.02 1.78 0.04 2.7 0.05 C3.72 0.09 3.72 0.09 4.75 0.12 C4.42 1.44 4.09 2.77 3.75 4.12 C-0.54 3.46 -4.83 2.81 -9.25 2.12 C-5.38 0.19 -4.1 -0.11 0 0 Z " fill="#181817" transform="translate(585.25,1064.875)"/>
<path d="M0 0 C2.63 -0.22 5.01 -0.28 7.62 -0.19 C8.33 -0.17 9.04 -0.16 9.77 -0.15 C11.51 -0.11 13.26 -0.06 15 0 C14.67 0.66 14.34 1.32 14 2 C8.67 3.11 3.43 3.11 -2 3 C-1.34 2.01 -0.68 1.02 0 0 Z " fill="#161716" transform="translate(1034,923)"/>
<path d="M0 0 C0.33 0.66 0.66 1.32 1 2 C2.98 1.67 4.96 1.34 7 1 C7.33 2.65 7.66 4.3 8 6 C4.37 5.34 0.74 4.68 -3 4 C-2.67 3.34 -2.34 2.68 -2 2 C-1.34 2 -0.68 2 0 2 C0 1.34 0 0.68 0 0 Z " fill="#121312" transform="translate(219,914)"/>
<path d="M0 0 C0.66 0 1.32 0 2 0 C2 0.99 2 1.98 2 3 C2.66 3 3.32 3 4 3 C4 3.66 4 4.32 4 5 C5.32 5.33 6.64 5.66 8 6 C7.34 7.32 6.68 8.64 6 10 C5.67 9.34 5.34 8.68 5 8 C4.01 7.67 3.02 7.34 2 7 C1.67 6.01 1.34 5.02 1 4 C0.34 3.67 -0.32 3.34 -1 3 C-0.67 2.01 -0.34 1.02 0 0 Z " fill="#9C9997" transform="translate(829,274)"/>
<path d="M0 0 C-0.33 0.99 -0.66 1.98 -1 3 C-5.29 3 -9.58 3 -14 3 C-14 2.34 -14 1.68 -14 1 C-12.23 0.83 -10.46 0.67 -8.69 0.5 C-7.7 0.41 -6.72 0.31 -5.7 0.22 C-3 0 -3 0 0 0 Z " fill="#1E1F1D" transform="translate(213,843)"/>
<path d="M0 0 C0.99 0.33 1.98 0.66 3 1 C3 2.65 3 4.3 3 6 C-1.46 5.01 -1.46 5.01 -6 4 C-4.04 2.49 -2.22 1.11 0 0 Z " fill="#191918" transform="translate(552,1049)"/>
<path d="M0 0 C1.98 0.99 1.98 0.99 4 2 C2.51 8.43 2.51 8.43 1 15 C0.67 15 0.34 15 0 15 C0 10.05 0 5.1 0 0 Z " fill="#1D1E1C" transform="translate(981,937)"/>
<path d="M0 0 C0.66 0 1.32 0 2 0 C2 0.66 2 1.32 2 2 C2.8 2.12 3.61 2.25 4.44 2.38 C5.71 2.68 5.71 2.68 7 3 C7.33 3.66 7.66 4.32 8 5 C4.04 4.67 0.08 4.34 -4 4 C-2.68 3.34 -1.36 2.68 0 2 C0 1.34 0 0.68 0 0 Z " fill="#161716" transform="translate(240,921)"/>
<path d="M0 0 C1.98 0.66 3.96 1.32 6 2 C5.67 2.99 5.34 3.98 5 5 C2.69 5.33 0.38 5.66 -2 6 C-1.12 1.12 -1.12 1.12 0 0 Z " fill="#686665" transform="translate(996,807)"/>
<path d="M0 0 C3 1 3 1 4.25 2.69 C5.44 6.35 4.7 9.6 3 13 C2.34 12.67 1.68 12.34 1 12 C1.02 11.08 1.02 11.08 1.04 10.14 C1.04 9.33 1.05 8.52 1.06 7.69 C1.07 6.89 1.09 6.09 1.1 5.26 C1.1 2.83 1.1 2.83 0 0 Z " fill="#131412" transform="translate(380,668)"/>
<path d="M0 0 C0.33 0 0.66 0 1 0 C1.33 4.62 1.66 9.24 2 14 C1.01 14.66 0.02 15.32 -1 16 C-1.11 10.54 -0.92 5.38 0 0 Z " fill="#121211" transform="translate(390,367)"/>
<path d="M0 0 C0.33 0 0.66 0 1 0 C1.66 4.62 2.32 9.24 3 14 C1.68 14 0.36 14 -1 14 C-1.08 9.17 -0.95 4.76 0 0 Z " fill="#191918" transform="translate(889,355)"/>
<path d="M0 0 C4.29 0.66 8.58 1.32 13 2 C13 2.33 13 2.66 13 3 C11.42 3.22 9.83 3.43 8.25 3.62 C6.93 3.8 6.93 3.8 5.58 3.98 C2.77 4 1.37 3.45 -1 2 C-0.67 1.34 -0.34 0.68 0 0 Z " fill="#141513" transform="translate(733,210)"/>
<path d="M0 0 C0.33 0.66 0.66 1.32 1 2 C1.66 2 2.32 2 3 2 C3.04 4 3.04 6 3 8 C2 9 2 9 -0.56 9.06 C-1.37 9.04 -2.17 9.02 -3 9 C-2.34 8.67 -1.68 8.34 -1 8 C-0.53 6.1 -0.53 6.1 -0.38 3.94 C-0.25 2.64 -0.13 1.34 0 0 Z " fill="#636261" transform="translate(397,347)"/>
<path d="M0 0 C0.99 0 1.98 0 3 0 C3 1.98 3 3.96 3 6 C-1.46 5.01 -1.46 5.01 -6 4 C-2 2 -2 2 0 2 C0 1.34 0 0.68 0 0 Z " fill="#1D1D1C" transform="translate(566,1056)"/>
<path d="M0 0 C0.99 0.33 1.98 0.66 3 1 C2.67 5.29 2.34 9.58 2 14 C1.67 14 1.34 14 1 14 C-0.21 9.33 -0.09 4.79 0 0 Z " fill="#2C2C2A" transform="translate(304,952)"/>
<path d="M0 0 C0.66 0.66 1.32 1.32 2 2 C-0.83 5.25 -2.69 6.52 -7 7 C-5.55 3.17 -3.57 1.88 0 0 Z " fill="#A6A3A1" transform="translate(1086,893)"/>
<path d="M0 0 C0.78 0.04 1.57 0.08 2.38 0.12 C2.38 2.11 2.38 4.09 2.38 6.12 C0.06 5.47 -2.25 4.8 -4.62 4.12 C-4.62 0.73 -3.18 0.15 0 0 Z " fill="#272725" transform="translate(303.625,622.875)"/>
<path d="M0 0 C1.98 0.5 1.98 0.5 4 1 C4.33 2.32 4.66 3.64 5 5 C1 5 1 5 -1 4 C-0.67 2.68 -0.34 1.36 0 0 Z " fill="#9D9A98" transform="translate(1095,862)"/>
<path d="M0 0 C1.86 -0.06 1.86 -0.06 3.75 -0.12 C4.79 -0.16 4.79 -0.16 5.86 -0.2 C8.3 0.03 9.89 0.79 12 2 C10.38 2.19 8.75 2.38 7.12 2.56 C6.22 2.67 5.32 2.77 4.38 2.88 C2 3 2 3 0 2 C0 1.34 0 0.68 0 0 Z " fill="#161716" transform="translate(712,204)"/>
<path d="M0 0 C3.5 0.31 3.5 0.31 6.5 2.31 C0.07 2.81 0.07 2.81 -6.5 3.31 C-3.5 0.31 -3.5 0.31 0 0 Z " fill="#181918" transform="translate(945.5,638.6875)"/>
<path d="M0 0 C0.99 0.33 1.98 0.66 3 1 C2.34 1 1.68 1 1 1 C0.34 4.3 -0.32 7.6 -1 11 C-1.33 11 -1.66 11 -2 11 C-2.05 9.54 -2.09 8.08 -2.12 6.62 C-2.16 5.41 -2.16 5.41 -2.2 4.16 C-2 2 -2 2 0 0 Z " fill="#252624" transform="translate(905,661)"/>
<path d="M0 0 C3.12 -0.19 3.12 -0.19 6 0 C6.33 0.66 6.66 1.32 7 2 C2.54 2.49 2.54 2.49 -2 3 C-1.34 2.01 -0.68 1.02 0 0 Z " fill="#141514" transform="translate(700,1065)"/>
<path d="M0 0 C1.11 0.56 1.11 0.56 2.25 1.12 C2.25 1.46 2.25 1.78 2.25 2.12 C-1.05 2.46 -4.35 2.78 -7.75 3.12 C-5.95 -0.48 -3.78 -1.2 0 0 Z " fill="#181817" transform="translate(968.75,631.875)"/>
<path d="M0 0 C1.98 0 3.96 0 6 0 C6 0.66 6 1.32 6 2 C3.69 2.66 1.38 3.32 -1 4 C-0.67 2.68 -0.34 1.36 0 0 Z " fill="#191A18" transform="translate(1075,909)"/>
<path d="M0 0 C2.31 0.66 4.62 1.32 7 2 C7 2.33 7 2.66 7 3 C4.36 3.33 1.72 3.66 -1 4 C-0.67 2.68 -0.34 1.36 0 0 Z " fill="#1B1B1A" transform="translate(1061,915)"/>
<path d="M0 0 C2.43 3.64 2.16 5.71 2 10 C1.34 9.67 0.68 9.34 0 9 C0 6.03 0 3.06 0 0 Z " fill="#252524" transform="translate(903,679)"/>
<path d="M0 0 C1.98 0.66 3.96 1.32 6 2 C3.35 3.46 2.11 4 -1 4 C-0.67 2.68 -0.34 1.36 0 0 Z " fill="#181918" transform="translate(926,645)"/>
<path d="M0 0 C2.48 0.49 2.48 0.49 5 1 C5 1.66 5 2.32 5 3 C3.35 3.33 1.7 3.66 0 4 C0 2.68 0 1.36 0 0 Z " fill="#1C1C1B" transform="translate(733,1050)"/>
<path d="M0 0 C0.99 0.33 1.98 0.66 3 1 C3 1.66 3 2.32 3 3 C1.02 3.66 -0.96 4.32 -3 5 C-1.12 1.12 -1.12 1.12 0 0 Z " fill="#2A2A29" transform="translate(757,1036)"/>
<path d="M0 0 C0.66 0.33 1.32 0.66 2 1 C1.34 2.98 0.68 4.96 0 7 C-0.66 6.34 -1.32 5.68 -2 5 C-1.46 1.46 -1.46 1.46 0 0 Z " fill="#1C1C1B" transform="translate(1011,597)"/>
<path d="M0 0 C1.98 0 3.96 0 6 0 C4 2 4 2 1.38 2.12 C0.59 2.08 -0.19 2.04 -1 2 C-0.67 1.34 -0.34 0.68 0 0 Z " fill="#242422" transform="translate(828,994)"/>
<path d="M0 0 C1.32 0.66 2.64 1.32 4 2 C2.35 2.33 0.7 2.66 -1 3 C-0.67 2.01 -0.34 1.02 0 0 Z " fill="#1A1B19" transform="translate(983,624)"/>
<path d="M0 0 C0.66 0 1.32 0 2 0 C2.33 1.65 2.66 3.3 3 5 C2.01 4.34 1.02 3.68 0 3 C0 2.01 0 1.02 0 0 Z " fill="#1A1B19" transform="translate(1009,563)"/>
<path d="M0 0 C2.97 0.49 2.97 0.49 6 1 C6 1.33 6 1.66 6 2 C4.02 2 2.04 2 0 2 C0 1.34 0 0.68 0 0 Z " fill="#161615" transform="translate(601,1072)"/>
<path d="M0 0 C1.98 0.49 1.98 0.49 4 1 C2.02 1.99 2.02 1.99 0 3 C0 2.01 0 1.02 0 0 Z " fill="#242523" transform="translate(720,1058)"/>
<path d="M0 0 C0.99 0.66 1.98 1.32 3 2 C1.35 2.33 -0.3 2.66 -2 3 C-1.34 2.01 -0.68 1.02 0 0 Z " fill="#212120" transform="translate(799,1008)"/>
<path d="M0 0 C1.32 0 2.64 0 4 0 C4 0.66 4 1.32 4 2 C2.68 2.33 1.36 2.66 0 3 C0 2.01 0 1.02 0 0 Z " fill="#181918" transform="translate(811,1001)"/>
<path d="M0 0 C2.64 0 5.28 0 8 0 C8 0.33 8 0.66 8 1 C5.36 1 2.72 1 0 1 C0 0.67 0 0.34 0 0 Z " fill="#F3F3F3" transform="translate(960,540)"/>
<path d="M0 0 C0.33 0 0.66 0 1 0 C1 2.31 1 4.62 1 7 C0.67 7 0.34 7 0 7 C0 4.69 0 2.38 0 0 Z " fill="#000100" transform="translate(975,968)"/>
<path d="M0 0 C0 0.99 0 1.98 0 3 C-0.99 3 -1.98 3 -3 3 C-2.01 2.01 -1.02 1.02 0 0 Z " fill="#252624" transform="translate(1095,899)"/>
<path d="M0 0 C0 0.99 0 1.98 0 3 C-0.99 3 -1.98 3 -3 3 C-2.01 2.01 -1.02 1.02 0 0 Z " fill="#252624" transform="translate(1102,892)"/>
<path d="M0 0 C0.33 0 0.66 0 1 0 C1 1.65 1 3.3 1 5 C0.67 5 0.34 5 0 5 C0 3.35 0 1.7 0 0 Z " fill="#F3F3F3" transform="translate(384,536)"/>
<path d="M0 0 C1 4 1 4 1 4 Z " fill="#000100" transform="translate(1017,583)"/>
<path d="M0 0 C4 1 4 1 4 1 Z " fill="#F3F3F3" transform="translate(953,540)"/>
<path d="" fill="#A6A3A1" transform="translate(0,0)"/>
<path d="M0 0 C2 1 2 1 2 1 Z " fill="#424240" transform="translate(987,937)"/>
<path d="" fill="#424240" transform="translate(0,0)"/>
<path d="" fill="#424240" transform="translate(0,0)"/>
<path d="" fill="#CCCBCA" transform="translate(0,0)"/>
<path d="M0 0 C2 1 2 1 2 1 Z " fill="#F3F3F3" transform="translate(289,802)"/>
<path d="" fill="#F3F3F3" transform="translate(0,0)"/>
<path d="" fill="#424240" transform="translate(0,0)"/>
<path d="M0 0 C2 1 2 1 2 1 Z " fill="#212120" transform="translate(279,611)"/>
<path d="M0 0 C2 1 2 1 2 1 Z " fill="#F3F3F3" transform="translate(580,198)"/>
<path d="" fill="#000100" transform="translate(0,0)"/>
<path d="" fill="#424240" transform="translate(0,0)"/>
<path d="" fill="#424240" transform="translate(0,0)"/>
<path d="" fill="#000100" transform="translate(0,0)"/>
<path d="" fill="#424240" transform="translate(0,0)"/>
<path d="" fill="#424240" transform="translate(0,0)"/>
<path d="" fill="#000100" transform="translate(0,0)"/>
<path d="" fill="#000100" transform="translate(0,0)"/>
<path d="" fill="#000100" transform="translate(0,0)"/>
<path d="" fill="#A6A3A1" transform="translate(0,0)"/>
<path d="" fill="#424240" transform="translate(0,0)"/>
<path d="" fill="#000100" transform="translate(0,0)"/>
<path d="" fill="#424240" transform="translate(0,0)"/>
<path d="" fill="#424240" transform="translate(0,0)"/>
<path d="" fill="#424240" transform="translate(0,0)"/>
<path d="" fill="#000100" transform="translate(0,0)"/>
<path d="" fill="#F3F3F3" transform="translate(0,0)"/>
<path d="" fill="#F3F3F3" transform="translate(0,0)"/>
<path d="" fill="#F3F3F3" transform="translate(0,0)"/>
<path d="" fill="#F3F3F3" transform="translate(0,0)"/>
<path d="" fill="#000100" transform="translate(0,0)"/>
<path d="" fill="#000100" transform="translate(0,0)"/>
<path d="" fill="#000100" transform="translate(0,0)"/>
<path d="" fill="#424240" transform="translate(0,0)"/>
<path d="" fill="#F3F3F3" transform="translate(0,0)"/>
<path d="" fill="#F3F3F3" transform="translate(0,0)"/>
<path d="" fill="#F3F3F3" transform="translate(0,0)"/>
<path d="" fill="#000100" transform="translate(0,0)"/>
<path d="" fill="#000100" transform="translate(0,0)"/>
<path d="" fill="#000100" transform="translate(0,0)"/>
<path d="" fill="#000100" transform="translate(0,0)"/>
<path d="" fill="#000100" transform="translate(0,0)"/>
<path d="" fill="#424240" transform="translate(0,0)"/>
<path d="" fill="#424240" transform="translate(0,0)"/>
<path d="" fill="#000100" transform="translate(0,0)"/>
<path d="" fill="#000100" transform="translate(0,0)"/>
<path d="" fill="#F3F3F3" transform="translate(0,0)"/>
<path d="" fill="#F3F3F3" transform="translate(0,0)"/>
<path d="" fill="#F3F3F3" transform="translate(0,0)"/>
<path d="" fill="#F3F3F3" transform="translate(0,0)"/>
<path d="" fill="#424240" transform="translate(0,0)"/>
<path d="" fill="#F3F3F3" transform="translate(0,0)"/>
<path d="" fill="#F3F3F3" transform="translate(0,0)"/>
<path d="" fill="#F3F3F3" transform="translate(0,0)"/>
</svg>
