<?xml version="1.0" encoding="UTF-8"?>
<svg id="Layer_1" data-name="Layer 1" xmlns="http://www.w3.org/2000/svg" viewBox="0 0 800 800">
  <defs>
    <style>
      .cls-1 {
        fill: none;
        stroke: #fff;
        stroke-linejoin: round;
        stroke-width: 33.33px;
      }
    </style>
  </defs>
  <path class="cls-1" d="m733.3,197.5c-24.5,10.9-50.9,18.2-78.5,21.5,28.2-16.9,49.9-43.7,60.1-75.7-26.4,15.7-55.7,27.1-86.9,33.2-25-26.5-60.5-43.2-99.8-43.2-75.5,0-136.8,61.2-136.8,136.8,0,10.7,1.2,21.1,3.5,31.1-113.7-5.7-214.5-60.2-281.9-142.9-11.7,20.3-18.5,43.7-18.5,68.8,0,47.4,24.2,89.3,60.8,113.9-22.4-.7-43.5-6.9-62-17.1v1.8c0,66.3,47.1,121.6,109.7,134.1-11.5,3.1-23.6,4.8-36,4.8-8.8,0-17.4-.8-25.7-2.4,17.4,54.3,67.9,93.9,127.8,95-46.8,36.7-105.8,58.6-169.9,58.6-11,0-21.9-.6-32.6-1.9,60.5,38.8,132.4,61.5,209.6,61.5,251.6,0,389.2-208.4,389.2-389.1,0-5.9-.2-11.8-.4-17.7,26.8-19.6,50-43.6,68.3-71.1h0Z"/>
</svg>