<?xml version="1.0" encoding="UTF-8"?>
<svg id="Layer_1" data-name="Layer 1" xmlns="http://www.w3.org/2000/svg" viewBox="0 0 800 800">
  <defs>
    <style>
      .cls-1 {
        fill: none;
        stroke: #fff;
        stroke-linejoin: round;
        stroke-width: 33.33px;
      }
    </style>
  </defs>
  <path class="cls-1" d="m686.5,148.7c31.6,8.5,56.4,33.3,64.8,64.8,15.3,57.2,15.3,176.5,15.3,176.5,0,0,0,119.3-15.3,176.5-8.4,31.6-33.3,56.4-64.8,64.8-57.2,15.4-286.5,15.4-286.5,15.4,0,0-229.3,0-286.5-15.3-31.6-8.5-56.4-33.3-64.8-64.8-15.4-57.2-15.4-176.6-15.4-176.6,0,0,0-119.3,15.3-176.5,8.5-31.6,33.3-56.4,64.8-64.8,57.2-15.3,286.5-15.3,286.5-15.3,0,0,229.4-.1,286.6,15.3Zm-169.4,241.3l-190.5,110v-220l190.5,110Z"/>
</svg>